<svg xmlns="http://www.w3.org/2000/svg" xmlns:xlink="http://www.w3.org/1999/xlink" viewBox="0 0 179.41 172.51"><defs><style>.cls-1{fill:#428dff;}.cls-2{fill:#ccc;}.cls-3{fill:url(#linear-gradient);}.cls-4{fill:#7fa9db;}.cls-5{fill:#fff;}.cls-6{fill:#4d4d4d;}</style><linearGradient id="linear-gradient" x1="52.82" y1="57.52" x2="113.86" y2="57.52" gradientUnits="userSpaceOnUse"><stop offset="0" stop-color="#d4e1f4"/><stop offset="0.17" stop-color="#d4e1f4"/><stop offset="0.2" stop-color="#d4e1f4"/><stop offset="0.2" stop-color="#dae4f4"/><stop offset="0.2" stop-color="#ebebf4"/><stop offset="0.2" stop-color="#f6f1f4"/><stop offset="0.2" stop-color="#fdf4f4"/><stop offset="0.2" stop-color="#fff5f4"/><stop offset="0.25" stop-color="#fff5f4"/><stop offset="0.26" stop-color="#fff5f4"/><stop offset="0.26" stop-color="#d4e1f4"/><stop offset="0.4" stop-color="#d4e1f4"/><stop offset="0.42" stop-color="#d4e1f4"/><stop offset="0.42" stop-color="#dae4f4"/><stop offset="0.42" stop-color="#ebebf4"/><stop offset="0.42" stop-color="#f6f1f4"/><stop offset="0.42" stop-color="#fdf4f4"/><stop offset="0.42" stop-color="#fff5f4"/><stop offset="0.49" stop-color="#fff5f4"/><stop offset="0.5" stop-color="#fff5f4"/><stop offset="0.5" stop-color="#f9f2f4"/><stop offset="0.5" stop-color="#e8ebf4"/><stop offset="0.5" stop-color="#dde5f4"/><stop offset="0.5" stop-color="#d6e2f4"/><stop offset="0.5" stop-color="#d4e1f4"/><stop offset="0.71" stop-color="#d4e1f4"/><stop offset="0.74" stop-color="#d4e1f4"/><stop offset="0.74" stop-color="#fff5f4"/><stop offset="0.83" stop-color="#fff5f4"/><stop offset="0.85" stop-color="#fff5f4"/><stop offset="0.85" stop-color="#d4e1f4"/></linearGradient></defs><title>btn-resultados1</title><g id="Capa_2" data-name="Capa 2"><g id="Layer_1" data-name="Layer 1"><rect class="cls-1" x="15.61" y="9" width="163.8" height="163.52"/><rect class="cls-2" width="167.34" height="157.82"/><path class="cls-3" d="M113.86,92A7.49,7.49,0,0,1,107,96.42H60.3a7.48,7.48,0,0,1-7.48-7.48V26.09a7.47,7.47,0,0,1,7.27-7.47,7.92,7.92,0,0,0-.61,2.24,7.22,7.22,0,0,0,0,.82V76.14a7.49,7.49,0,0,0,7.49,7.48h46.73C113.72,83.62,113.79,92,113.86,92Z"/><path class="cls-4" d="M97.66,54.32,81.65,70a2.21,2.21,0,0,1-3.09,0l-8.89-8.67A2.23,2.23,0,0,1,69,59.14a2.21,2.21,0,0,1,3.7-1l0,0,7.34,7.17L94.59,51.16a2.2,2.2,0,0,1,3.07,3.16Z"/><path class="cls-1" d="M107,16.37H92.86a10,10,0,0,0-18.38,0H60.3a9.75,9.75,0,0,0-9.71,9.72V88.94a9.71,9.71,0,0,0,9.71,9.68H107a9.72,9.72,0,0,0,9.72-9.68V26.09A9.75,9.75,0,0,0,107,16.37ZM71.76,20.78h4.31a2.16,2.16,0,0,0,2.15-1.72,5.62,5.62,0,0,1,10.89,0,2.19,2.19,0,0,0,2.15,1.72h4.31v2a5.25,5.25,0,0,1-5.2,5.31H77a5.25,5.25,0,0,1-5.21-5.3Zm-4.41,0v2A9.66,9.66,0,0,0,77,32.47H90.36A9.68,9.68,0,0,0,100,22.75v-2h7a5.35,5.35,0,0,1,5.31,5.31V88.94A5.3,5.3,0,0,1,107,94.21H60.3A5.3,5.3,0,0,1,55,88.94V26.09a5.32,5.32,0,0,1,4.48-5.23,4.47,4.47,0,0,1,.82-.08Z"/><path class="cls-5" d="M107,20.78h-7v2a9.68,9.68,0,0,1-9.63,9.72H77a9.66,9.66,0,0,1-9.62-9.72v-2h-7a4.47,4.47,0,0,0-.82.08,7.22,7.22,0,0,0,0,.82V76.14a7.49,7.49,0,0,0,7.49,7.48h45.42V26.09A5.35,5.35,0,0,0,107,20.78ZM97.66,54.32,81.65,70a2.21,2.21,0,0,1-3.09,0l-8.89-8.67A2.23,2.23,0,0,1,69,59.14a2.21,2.21,0,0,1,3.7-1l0,0,7.34,7.17L94.59,51.16a2.2,2.2,0,0,1,3.07,3.16Z"/><path class="cls-6" d="M33.09,128.23V110.41h3.59a7.83,7.83,0,0,1,3,.47,3.26,3.26,0,0,1,1.72,1.52,5.69,5.69,0,0,1,.57,2.74A7.82,7.82,0,0,1,41.7,117a3.77,3.77,0,0,1-.71,1.43,2.74,2.74,0,0,1-1.28.84l2.54,8.94h-2.4l-2.34-8.36H35.58v8.36Zm2.49-10.15h1a4.59,4.59,0,0,0,1.71-.26,1.82,1.82,0,0,0,1-.9,4.28,4.28,0,0,0,.31-1.78,3.55,3.55,0,0,0-.57-2.26,2.9,2.9,0,0,0-2.27-.69h-1.1Z"/><path class="cls-6" d="M44,128.23V110.41h6.91v1.84H46.47v5.9h3.58v1.76H46.47v6.53h4.46v1.79Z"/><path class="cls-6" d="M56.61,128.42a4.62,4.62,0,0,1-2.56-.66,4.18,4.18,0,0,1-1.55-1.82,7.66,7.66,0,0,1-.62-2.71l2.2-.59a9.74,9.74,0,0,0,.3,1.82,3.21,3.21,0,0,0,.76,1.44,1.9,1.9,0,0,0,1.47.57,1.87,1.87,0,0,0,1.46-.54,2.22,2.22,0,0,0,.5-1.55,3.15,3.15,0,0,0-.55-1.95,10.47,10.47,0,0,0-1.39-1.49l-3-2.64a5,5,0,0,1-1.3-1.68,5.39,5.39,0,0,1-.41-2.25,4,4,0,0,1,1.12-3,4.22,4.22,0,0,1,3.06-1.08,5.49,5.49,0,0,1,1.85.28,3.23,3.23,0,0,1,1.35.84,4.16,4.16,0,0,1,.85,1.44,7.71,7.71,0,0,1,.43,2l-2.11.57a8.71,8.71,0,0,0-.26-1.62,2.46,2.46,0,0,0-.7-1.18,2.41,2.41,0,0,0-2.86,0,2,2,0,0,0-.51,1.46,3,3,0,0,0,.27,1.35,4,4,0,0,0,.89,1.07l3,2.64a9.6,9.6,0,0,1,1.78,2.1,5.36,5.36,0,0,1,.77,2.9,4.41,4.41,0,0,1-.55,2.27,3.75,3.75,0,0,1-1.51,1.47A4.74,4.74,0,0,1,56.61,128.42Z"/><path class="cls-6" d="M66.89,128.42a4.83,4.83,0,0,1-3-.77,3.82,3.82,0,0,1-1.41-2.16,12.66,12.66,0,0,1-.38-3.27V110.41h2.38v11.92a13.42,13.42,0,0,0,.15,2.09,2.89,2.89,0,0,0,.67,1.5,2.08,2.08,0,0,0,1.56.55,2.05,2.05,0,0,0,1.56-.55,3,3,0,0,0,.66-1.5,13.42,13.42,0,0,0,.15-2.09V110.41h2.36v11.81a12.66,12.66,0,0,1-.38,3.27,3.8,3.8,0,0,1-1.4,2.16A4.78,4.78,0,0,1,66.89,128.42Z"/><path class="cls-6" d="M73.71,128.23V110.41h2.48v16h4.56v1.79Z"/><path class="cls-6" d="M83.39,128.23v-16h-3v-1.84H88.8v1.84H85.87v16Z"/><path class="cls-6" d="M89,128.23l3.79-17.82h2.4L99,128.23H96.61l-.82-4.49H92.16l-.85,4.49ZM92.49,122h3l-1.49-8Z"/><path class="cls-6" d="M100.24,128.23V110.41h3.87a6.83,6.83,0,0,1,3.13.6,3.46,3.46,0,0,1,1.65,1.82,8,8,0,0,1,.5,3v6.56a9,9,0,0,1-.5,3.19,3.77,3.77,0,0,1-1.6,2,5.72,5.72,0,0,1-3,.68Zm2.48-1.79h1.41a2.85,2.85,0,0,0,1.94-.52,2.43,2.43,0,0,0,.69-1.54,21.29,21.29,0,0,0,.12-2.45v-5.78a12.34,12.34,0,0,0-.17-2.25,1.9,1.9,0,0,0-.77-1.25,3.49,3.49,0,0,0-1.87-.4h-1.35Z"/><path class="cls-6" d="M115.86,128.42a5.18,5.18,0,0,1-2.88-.7,3.81,3.81,0,0,1-1.54-2,9.21,9.21,0,0,1-.47-3.07v-6.76a8.5,8.5,0,0,1,.48-3,3.78,3.78,0,0,1,1.54-1.94,5.42,5.42,0,0,1,2.87-.67,5.28,5.28,0,0,1,2.86.68,3.91,3.91,0,0,1,1.53,1.94,8.69,8.69,0,0,1,.47,3v6.78a9,9,0,0,1-.47,3,4.09,4.09,0,0,1-1.53,2A5,5,0,0,1,115.86,128.42Zm0-1.95a2.32,2.32,0,0,0,1.49-.41,2,2,0,0,0,.69-1.14,8,8,0,0,0,.17-1.73v-7.81a7.72,7.72,0,0,0-.17-1.71,1.94,1.94,0,0,0-.69-1.1,2.46,2.46,0,0,0-1.49-.38,2.57,2.57,0,0,0-1.51.38,1.94,1.94,0,0,0-.69,1.1,7.12,7.12,0,0,0-.18,1.71v7.81a7.42,7.42,0,0,0,.18,1.73,2,2,0,0,0,.69,1.14A2.42,2.42,0,0,0,115.86,126.47Z"/><path class="cls-6" d="M126.83,128.42a4.64,4.64,0,0,1-2.56-.66,4.18,4.18,0,0,1-1.55-1.82,7.45,7.45,0,0,1-.61-2.71l2.19-.59a10.64,10.64,0,0,0,.3,1.82,3.31,3.31,0,0,0,.76,1.44,2.22,2.22,0,0,0,2.94,0,2.22,2.22,0,0,0,.49-1.55,3.15,3.15,0,0,0-.55-1.95,10.37,10.37,0,0,0-1.38-1.49l-3-2.64a5,5,0,0,1-1.3-1.68,5.38,5.38,0,0,1-.42-2.25,4,4,0,0,1,1.12-3,4.23,4.23,0,0,1,3.06-1.08,5.6,5.6,0,0,1,1.86.28,3.26,3.26,0,0,1,1.34.84,4.34,4.34,0,0,1,.86,1.44,8.6,8.6,0,0,1,.43,2l-2.11.57a9.6,9.6,0,0,0-.27-1.62,2.37,2.37,0,0,0-.69-1.18,2,2,0,0,0-1.42-.45,2,2,0,0,0-1.44.49,1.92,1.92,0,0,0-.52,1.46,2.85,2.85,0,0,0,.28,1.35,3.79,3.79,0,0,0,.89,1.07l3,2.64a9.34,9.34,0,0,1,1.78,2.1,5.28,5.28,0,0,1,.77,2.9,4.41,4.41,0,0,1-.55,2.27,3.72,3.72,0,0,1-1.5,1.47A4.78,4.78,0,0,1,126.83,128.42Z"/><path class="cls-6" d="M39,151.23l.33-17.82h2.45L45,147.86l3.17-14.45h2.42l.33,17.82h-2l-.2-12.94-3,12.94H44.26l-3-12.94-.2,12.94Z"/><path class="cls-6" d="M52.11,151.23l3.79-17.82h2.39l3.81,17.82H59.75l-.82-4.49H55.3l-.86,4.49ZM55.63,145h3l-1.49-8Z"/><path class="cls-6" d="M67.58,151.42a4.62,4.62,0,0,1-2.56-.66,4.2,4.2,0,0,1-1.56-1.82,7.66,7.66,0,0,1-.61-2.71l2.2-.59a9,9,0,0,0,.3,1.82,3.19,3.19,0,0,0,.75,1.44,1.94,1.94,0,0,0,1.48.57,1.89,1.89,0,0,0,1.46-.54,2.22,2.22,0,0,0,.5-1.55,3.22,3.22,0,0,0-.55-1.95,10.47,10.47,0,0,0-1.39-1.49l-3-2.64a5,5,0,0,1-1.3-1.68,5.38,5.38,0,0,1-.42-2.25,4,4,0,0,1,1.12-3,4.23,4.23,0,0,1,3.06-1.08,5.51,5.51,0,0,1,1.86.28,3.19,3.19,0,0,1,1.34.84,4.18,4.18,0,0,1,.86,1.44,8.13,8.13,0,0,1,.43,2l-2.11.57a8.69,8.69,0,0,0-.27-1.62,2.37,2.37,0,0,0-.69-1.18,2,2,0,0,0-1.42-.45,2,2,0,0,0-1.44.49,2,2,0,0,0-.52,1.46,3,3,0,0,0,.28,1.35,3.79,3.79,0,0,0,.89,1.07l3,2.64a9.64,9.64,0,0,1,1.79,2.1,5.36,5.36,0,0,1,.77,2.9,4.51,4.51,0,0,1-.55,2.27,3.75,3.75,0,0,1-1.51,1.47A4.77,4.77,0,0,1,67.58,151.42Z"/><path class="cls-6" d="M77.72,151.42a4.78,4.78,0,0,1-2.94-.79,4.13,4.13,0,0,1-1.45-2.13,10.34,10.34,0,0,1-.41-3v-6.3a10.87,10.87,0,0,1,.41-3.14A3.81,3.81,0,0,1,74.78,134a5.07,5.07,0,0,1,2.94-.74,5,5,0,0,1,2.65.62,3.48,3.48,0,0,1,1.41,1.76,7.75,7.75,0,0,1,.43,2.75v1.41H79.85v-1.26a13,13,0,0,0-.1-1.75,1.86,1.86,0,0,0-.53-1.17,2.13,2.13,0,0,0-1.48-.42,2.21,2.21,0,0,0-1.54.45,2.16,2.16,0,0,0-.62,1.28,10.77,10.77,0,0,0-.15,1.92v7.06a8.38,8.38,0,0,0,.22,2.12,1.89,1.89,0,0,0,.73,1.12,2.47,2.47,0,0,0,1.36.33,1.91,1.91,0,0,0,1.45-.46,2.07,2.07,0,0,0,.55-1.24,12.6,12.6,0,0,0,.11-1.85V144.6h2.36v1.32a9.21,9.21,0,0,1-.4,2.87,3.67,3.67,0,0,1-1.36,1.94A4.67,4.67,0,0,1,77.72,151.42Z"/><path class="cls-6" d="M88.65,151.42a4.87,4.87,0,0,1-3-.77,3.8,3.8,0,0,1-1.4-2.16,12.66,12.66,0,0,1-.38-3.27V133.41h2.38v11.92a13.42,13.42,0,0,0,.15,2.09,2.82,2.82,0,0,0,.67,1.5,2.49,2.49,0,0,0,3.12,0,3,3,0,0,0,.66-1.5,13.42,13.42,0,0,0,.15-2.09V133.41h2.35v11.81a12.69,12.69,0,0,1-.37,3.27,3.85,3.85,0,0,1-1.4,2.16A4.81,4.81,0,0,1,88.65,151.42Z"/><path class="cls-6" d="M95.47,151.23V133.41H98v16h4.55v1.79Z"/><path class="cls-6" d="M103.81,151.23V133.41h2.44v17.82Z"/><path class="cls-6" d="M108.61,151.23V133.41h1.69l5.06,11.83V133.41h2.07v17.82h-1.58l-5.13-12.17v12.17Z"/><path class="cls-6" d="M124.25,151.42a5.2,5.2,0,0,1-2.88-.7,3.86,3.86,0,0,1-1.54-2,9.22,9.22,0,0,1-.46-3.07v-6.76a8.52,8.52,0,0,1,.47-3,3.78,3.78,0,0,1,1.54-1.94,5.42,5.42,0,0,1,2.87-.67,5.26,5.26,0,0,1,2.86.68,3.91,3.91,0,0,1,1.53,1.94,8.46,8.46,0,0,1,.47,3v6.78a8.79,8.79,0,0,1-.47,3,4.09,4.09,0,0,1-1.53,2A5,5,0,0,1,124.25,151.42Zm0-1.95a2.37,2.37,0,0,0,1.5-.41,2.06,2.06,0,0,0,.68-1.14,7.45,7.45,0,0,0,.17-1.73v-7.81a7.16,7.16,0,0,0-.17-1.71,2,2,0,0,0-.68-1.1,2.51,2.51,0,0,0-1.5-.38,2.57,2.57,0,0,0-1.51.38,1.94,1.94,0,0,0-.69,1.1,7.16,7.16,0,0,0-.17,1.71v7.81a7.45,7.45,0,0,0,.17,1.73,2,2,0,0,0,.69,1.14A2.42,2.42,0,0,0,124.25,149.47Z"/></g></g></svg>