<svg xmlns="http://www.w3.org/2000/svg" xmlns:xlink="http://www.w3.org/1999/xlink" viewBox="0 0 284.46 150.23"><defs><style>.cls-1{fill:#132942;}.cls-2{fill:#ccc;}.cls-3{fill:#4d4d4d;}.cls-4{fill:#a4c2f7;}.cls-5{fill:#e3e7f2;}.cls-6{fill:url(#linear-gradient);}.cls-7{fill:#fff;}</style><linearGradient id="linear-gradient" x1="-2140.5" y1="-2239.28" x2="-2140.34" y2="-2239.17" gradientTransform="translate(807094.19 1177507.83) scale(377.01 525.83)" gradientUnits="userSpaceOnUse"><stop offset="0" stop-color="#d4e1f4"/><stop offset="0.17" stop-color="#d4e1f4"/><stop offset="0.2" stop-color="#d4e1f4"/><stop offset="0.2" stop-color="#dae4f4"/><stop offset="0.2" stop-color="#ebebf4"/><stop offset="0.2" stop-color="#f6f1f4"/><stop offset="0.2" stop-color="#fdf4f4"/><stop offset="0.2" stop-color="#fff5f4"/><stop offset="0.25" stop-color="#fff5f4"/><stop offset="0.26" stop-color="#fff5f4"/><stop offset="0.26" stop-color="#d4e1f4"/><stop offset="0.4" stop-color="#d4e1f4"/><stop offset="0.42" stop-color="#d4e1f4"/><stop offset="0.42" stop-color="#dae4f4"/><stop offset="0.42" stop-color="#ebebf4"/><stop offset="0.42" stop-color="#f6f1f4"/><stop offset="0.42" stop-color="#fdf4f4"/><stop offset="0.42" stop-color="#fff5f4"/><stop offset="0.49" stop-color="#fff5f4"/><stop offset="0.5" stop-color="#fff5f4"/><stop offset="0.5" stop-color="#f9f2f4"/><stop offset="0.5" stop-color="#e8ebf4"/><stop offset="0.5" stop-color="#dde5f4"/><stop offset="0.5" stop-color="#d6e2f4"/><stop offset="0.5" stop-color="#d4e1f4"/><stop offset="0.71" stop-color="#d4e1f4"/><stop offset="0.74" stop-color="#d4e1f4"/><stop offset="0.74" stop-color="#fff5f4"/><stop offset="0.83" stop-color="#fff5f4"/><stop offset="0.85" stop-color="#fff5f4"/><stop offset="0.85" stop-color="#d4e1f4"/></linearGradient></defs><title>btn-programacion4</title><g id="Capa_2" data-name="Capa 2"><g id="Layer_1" data-name="Layer 1"><rect class="cls-1" x="13" y="14" width="271.46" height="136.23"/><rect class="cls-2" width="271.46" height="136.23"/><path class="cls-3" d="M55.33,123.57V99.27h6a6.7,6.7,0,0,1,3.5.79,4.61,4.61,0,0,1,1.9,2.3,9.78,9.78,0,0,1,.6,3.63,7.64,7.64,0,0,1-.67,3.33,4.89,4.89,0,0,1-2,2.17,6.5,6.5,0,0,1-3.3.77H58.72v11.31Zm3.39-13.74h1.56a6.5,6.5,0,0,0,2.31-.33,2.11,2.11,0,0,0,1.2-1.16,6,6,0,0,0,.36-2.32,10.73,10.73,0,0,0-.25-2.67,1.87,1.87,0,0,0-1.07-1.29,6.58,6.58,0,0,0-2.52-.36H58.72Z"/><path class="cls-3" d="M69,123.57V99.27H73.9a10.78,10.78,0,0,1,4,.64A4.5,4.5,0,0,1,80.28,102a7.91,7.91,0,0,1,.76,3.74,10.16,10.16,0,0,1-.3,2.56,5,5,0,0,1-1,2A3.75,3.75,0,0,1,78,111.39l3.45,12.18H78.22L75,112.17H72.4v11.4Zm3.39-13.83h1.29a6.39,6.39,0,0,0,2.34-.36,2.41,2.41,0,0,0,1.32-1.23,5.7,5.7,0,0,0,.42-2.43,4.85,4.85,0,0,0-.78-3.08c-.52-.63-1.55-.94-3.09-.94H72.4Z"/><path class="cls-3" d="M90.07,123.84a7.1,7.1,0,0,1-3.93-1,5.27,5.27,0,0,1-2.1-2.75,12.55,12.55,0,0,1-.63-4.18v-9.21a11.59,11.59,0,0,1,.65-4.13,5.14,5.14,0,0,1,2.1-2.64,7.28,7.28,0,0,1,3.91-.91A7.12,7.12,0,0,1,94,100a5.31,5.31,0,0,1,2.09,2.64,11.67,11.67,0,0,1,.64,4.11V116a12.08,12.08,0,0,1-.64,4.14A5.52,5.52,0,0,1,94,122.86,6.86,6.86,0,0,1,90.07,123.84Zm0-2.67a3.2,3.2,0,0,0,2-.56,2.75,2.75,0,0,0,.93-1.56,10.18,10.18,0,0,0,.24-2.35V106.05a9.88,9.88,0,0,0-.24-2.33,2.59,2.59,0,0,0-.93-1.5,3.34,3.34,0,0,0-2-.52,3.39,3.39,0,0,0-2,.52,2.56,2.56,0,0,0-1,1.5,9.88,9.88,0,0,0-.24,2.33V116.7a10.18,10.18,0,0,0,.24,2.35,2.72,2.72,0,0,0,1,1.56A3.25,3.25,0,0,0,90.07,121.17Z"/><path class="cls-3" d="M105.1,123.87a6.13,6.13,0,0,1-3.64-1,5.45,5.45,0,0,1-2-2.83,14.31,14.31,0,0,1-.62-4.47v-8.13a16.2,16.2,0,0,1,.56-4.55,5.11,5.11,0,0,1,2-2.86,6.87,6.87,0,0,1,4-1,7.66,7.66,0,0,1,3.68.76,4.45,4.45,0,0,1,2,2.34,10.82,10.82,0,0,1,.63,4v.9h-3.18v-.75a13.14,13.14,0,0,0-.21-2.6,2.43,2.43,0,0,0-.85-1.5,3.35,3.35,0,0,0-2-.49,2.93,2.93,0,0,0-2.17.69,3.22,3.22,0,0,0-.84,1.87,19.64,19.64,0,0,0-.17,2.69v9a13.92,13.92,0,0,0,.26,2.91,2.91,2.91,0,0,0,1,1.74,3.22,3.22,0,0,0,2,.57,3,3,0,0,0,2-.63,3.34,3.34,0,0,0,1-1.86,14.58,14.58,0,0,0,.27-3.06v-1.68h-3.09v-2.4h6.15v12h-2.13l-.33-2.79a5.1,5.1,0,0,1-1.5,2.22A4.21,4.21,0,0,1,105.1,123.87Z"/><path class="cls-3" d="M114.64,123.57V99.27h4.89a10.78,10.78,0,0,1,4,.64,4.5,4.5,0,0,1,2.36,2.07,7.91,7.91,0,0,1,.76,3.74,10.16,10.16,0,0,1-.3,2.56,5,5,0,0,1-1,2,3.75,3.75,0,0,1-1.74,1.16l3.45,12.18h-3.27l-3.18-11.4H118v11.4ZM118,109.74h1.29a6.39,6.39,0,0,0,2.34-.36,2.41,2.41,0,0,0,1.32-1.23,5.7,5.7,0,0,0,.42-2.43,4.85,4.85,0,0,0-.78-3.08c-.52-.63-1.55-.94-3.09-.94H118Z"/><path class="cls-3" d="M128.17,123.57l5.16-24.3h3.27l5.19,24.3h-3.21l-1.11-6.12h-4.95l-1.17,6.12ZM133,115H137l-2-11Z"/><path class="cls-3" d="M143.47,123.57l.45-24.3h3.33L151.54,119l4.32-19.71h3.3l.45,24.3h-2.73l-.27-17.64-4.11,17.64h-1.92l-4.08-17.64-.27,17.64Z"/><path class="cls-3" d="M161.29,123.57l5.16-24.3h3.27l5.19,24.3H171.7l-1.11-6.12h-5l-1.17,6.12Zm4.8-8.55h4l-2-11Z"/><path class="cls-3" d="M182.62,123.84a6.49,6.49,0,0,1-4-1.08,5.57,5.57,0,0,1-2-2.91,14,14,0,0,1-.56-4.08v-8.58a14.83,14.83,0,0,1,.56-4.29,5.2,5.2,0,0,1,2-2.84,6.86,6.86,0,0,1,4-1,6.76,6.76,0,0,1,3.62.84,4.74,4.74,0,0,1,1.92,2.4,10.71,10.71,0,0,1,.58,3.75V108h-3.21v-1.71a18.8,18.8,0,0,0-.13-2.39,2.58,2.58,0,0,0-.74-1.6,2.87,2.87,0,0,0-2-.57,2.55,2.55,0,0,0-3,2.35,15.56,15.56,0,0,0-.2,2.63v9.63a11.06,11.06,0,0,0,.3,2.89,2.55,2.55,0,0,0,1,1.52,3.37,3.37,0,0,0,1.86.45,2.68,2.68,0,0,0,2-.62,2.91,2.91,0,0,0,.75-1.69,18.55,18.55,0,0,0,.15-2.52v-1.8h3.21v1.8a12.87,12.87,0,0,1-.54,3.91,5,5,0,0,1-1.86,2.64A6.31,6.31,0,0,1,182.62,123.84Z"/><path class="cls-3" d="M191.44,123.57V99.27h3.33v24.3Z"/><path class="cls-3" d="M204.19,123.84a7.1,7.1,0,0,1-3.93-1,5.27,5.27,0,0,1-2.1-2.75,12.55,12.55,0,0,1-.63-4.18v-9.21a11.83,11.83,0,0,1,.64-4.13,5.14,5.14,0,0,1,2.1-2.64,7.34,7.34,0,0,1,3.92-.91,7.12,7.12,0,0,1,3.9.93,5.24,5.24,0,0,1,2.08,2.64,11.66,11.66,0,0,1,.65,4.11V116a12.07,12.07,0,0,1-.65,4.14,5.45,5.45,0,0,1-2.08,2.74A6.86,6.86,0,0,1,204.19,123.84Zm0-2.67a3.2,3.2,0,0,0,2-.56,2.75,2.75,0,0,0,.93-1.56,10.18,10.18,0,0,0,.24-2.35V106.05a9.88,9.88,0,0,0-.24-2.33,2.59,2.59,0,0,0-.93-1.5,3.34,3.34,0,0,0-2-.52,3.42,3.42,0,0,0-2.06.52,2.6,2.6,0,0,0-.94,1.5,9.88,9.88,0,0,0-.24,2.33V116.7a10.18,10.18,0,0,0,.24,2.35,2.76,2.76,0,0,0,.94,1.56A3.28,3.28,0,0,0,204.19,121.17Zm-.84-23.34,1.77-5.94h3.21L205,97.83Z"/><path class="cls-3" d="M213.43,123.57V99.27h2.31l6.9,16.14V99.27h2.82v24.3H223.3l-7-16.59v16.59Z"/><polygon class="cls-4" points="116.92 7.54 123.58 14.2 146.23 14.2 158.22 26.19 158.22 7.54 116.92 7.54"/><polygon class="cls-5" points="110.26 14.2 142.23 14.2 154.22 26.19 154.22 7.54 107.6 7.54 107.6 78.14 110.26 78.14 110.26 14.2"/><polygon class="cls-4" points="164.88 32.85 146.23 14.2 136.9 14.2 136.9 84.8 164.88 84.8 164.88 32.85"/><polygon class="cls-6" points="160.88 32.85 144.9 14.2 110.26 14.2 110.26 84.8 160.88 84.8 160.88 32.85"/><polygon class="cls-4" points="146.23 14.2 146.23 32.85 164.88 32.85 146.23 14.2"/><path class="cls-1" d="M154.22,42.17h-33.3a1.33,1.33,0,1,1,0-2.66h33.3a1.33,1.33,0,1,1,0,2.66Z"/><path class="cls-1" d="M134.24,31.52H120.92a1.34,1.34,0,0,1,0-2.67h13.32a1.34,1.34,0,0,1,0,2.67Z"/><path class="cls-1" d="M154.22,52.83h-33.3a1.33,1.33,0,1,1,0-2.66h33.3a1.33,1.33,0,1,1,0,2.66Z"/><path class="cls-1" d="M154.22,63.49h-33.3a1.34,1.34,0,0,1,0-2.67h33.3a1.34,1.34,0,0,1,0,2.67Z"/><path class="cls-1" d="M154.22,74.14h-33.3a1.33,1.33,0,1,1,0-2.66h33.3a1.33,1.33,0,1,1,0,2.66Z"/><path class="cls-1" d="M164.88,86.13H110.26a1.33,1.33,0,0,1-1.33-1.33V14.2a1.32,1.32,0,0,1,.39-.94,1.33,1.33,0,0,1,.94-.39h36a1.33,1.33,0,0,1,.94.39l18.65,18.65a1.33,1.33,0,0,1,.39.94v52a1.33,1.33,0,0,1-1.33,1.33Zm-53.29-2.66h52V33.4L145.68,15.53H111.59Z"/><path class="cls-1" d="M164.88,34.18H146.23a1.33,1.33,0,0,1-1.33-1.33V14.2a1.33,1.33,0,0,1,2.27-.94l18.65,18.65a1.33,1.33,0,0,1-.94,2.27Zm-17.32-2.66h14.1l-14.1-14.11Z"/><path class="cls-1" d="M110.26,79.47H103.6a1.33,1.33,0,0,1-1.33-1.33V7.54a1.31,1.31,0,0,1,1.33-1.33h54.62a1.33,1.33,0,0,1,.94.39,1.32,1.32,0,0,1,.39.94V26.19a1.33,1.33,0,0,1-.82,1.23,1.34,1.34,0,0,1-1.45-.29l-11.6-11.6H111.59V78.14a1.33,1.33,0,0,1-.39.94A1.3,1.3,0,0,1,110.26,79.47Zm-5.33-2.66h4V14.2a1.32,1.32,0,0,1,.39-.94,1.33,1.33,0,0,1,.94-.39h36a1.33,1.33,0,0,1,.94.39L156.89,23V8.87h-52V76.81Z"/><rect class="cls-7" x="104.93" y="8.87" width="2.66" height="67.94"/></g></g></svg>