<svg xmlns="http://www.w3.org/2000/svg" viewBox="0 0 179.41 172.51"><defs><style>.cls-1{fill:#428dff;}.cls-2{fill:#ccc;}.cls-3{fill:#4d4d4d;}.cls-4{fill:#fff;}</style></defs><title>btn-programacion1</title><g id="Capa_2" data-name="Capa 2"><g id="Layer_1" data-name="Layer 1"><rect class="cls-1" x="15.61" y="9" width="163.8" height="163.52"/><rect class="cls-2" width="167.34" height="157.82"/><path class="cls-3" d="M21.54,131.36V113.54H26a4.92,4.92,0,0,1,2.57.58,3.4,3.4,0,0,1,1.39,1.68,7.08,7.08,0,0,1,.44,2.67,5.59,5.59,0,0,1-.49,2.44,3.58,3.58,0,0,1-1.46,1.59,4.74,4.74,0,0,1-2.42.56H24v8.3ZM24,121.28h1.14a4.87,4.87,0,0,0,1.7-.24,1.53,1.53,0,0,0,.88-.85,4.49,4.49,0,0,0,.26-1.7,7.61,7.61,0,0,0-.19-2,1.37,1.37,0,0,0-.78-1,4.94,4.94,0,0,0-1.85-.26H24Z"/><path class="cls-3" d="M31.57,131.36V113.54h3.59a8,8,0,0,1,3,.47,3.3,3.3,0,0,1,1.72,1.52,5.73,5.73,0,0,1,.56,2.74,7.35,7.35,0,0,1-.22,1.88,3.61,3.61,0,0,1-.7,1.43,2.76,2.76,0,0,1-1.28.85l2.53,8.93H38.33L36,123H34.06v8.36Zm2.49-10.14H35a4.59,4.59,0,0,0,1.72-.27,1.75,1.75,0,0,0,1-.9,4.24,4.24,0,0,0,.31-1.78,3.52,3.52,0,0,0-.58-2.26,2.86,2.86,0,0,0-2.26-.69h-1.1Z"/><path class="cls-3" d="M47,131.56a5.21,5.21,0,0,1-2.89-.71,3.91,3.91,0,0,1-1.54-2,9.45,9.45,0,0,1-.46-3.07V119a8.52,8.52,0,0,1,.48-3,3.67,3.67,0,0,1,1.54-1.93,5.3,5.3,0,0,1,2.87-.68,5.19,5.19,0,0,1,2.86.69A3.89,3.89,0,0,1,51.41,116a8.71,8.71,0,0,1,.47,3v6.77a9,9,0,0,1-.47,3,4,4,0,0,1-1.53,2A5,5,0,0,1,47,131.56Zm0-2a2.32,2.32,0,0,0,1.49-.41,2,2,0,0,0,.69-1.14,8,8,0,0,0,.17-1.73v-7.81a7.56,7.56,0,0,0-.17-1.7,1.88,1.88,0,0,0-.69-1.1,2.39,2.39,0,0,0-1.49-.39,2.47,2.47,0,0,0-1.51.39,1.83,1.83,0,0,0-.69,1.1,7,7,0,0,0-.18,1.7v7.81a7.36,7.36,0,0,0,.18,1.73,2,2,0,0,0,.69,1.14A2.4,2.4,0,0,0,47,129.6Z"/><path class="cls-3" d="M58,131.58a4.45,4.45,0,0,1-2.67-.72,4,4,0,0,1-1.46-2.08,10.46,10.46,0,0,1-.45-3.27v-6a11.92,11.92,0,0,1,.41-3.33,3.7,3.7,0,0,1,1.45-2.1,5.1,5.1,0,0,1,2.92-.73,5.51,5.51,0,0,1,2.69.57,3.27,3.27,0,0,1,1.49,1.71,8.09,8.09,0,0,1,.46,2.92v.66H60.55v-.55a9.13,9.13,0,0,0-.16-1.91,1.82,1.82,0,0,0-.62-1.1,2.48,2.48,0,0,0-1.49-.36,2.14,2.14,0,0,0-1.59.51,2.33,2.33,0,0,0-.62,1.37,14.57,14.57,0,0,0-.12,2v6.6a10.57,10.57,0,0,0,.18,2.13,2.17,2.17,0,0,0,.72,1.28,2.35,2.35,0,0,0,1.5.42,2.23,2.23,0,0,0,1.49-.46,2.48,2.48,0,0,0,.73-1.37,10.79,10.79,0,0,0,.2-2.24V124.3H58.5v-1.76H63v8.82H61.45l-.24-2.05a3.84,3.84,0,0,1-1.1,1.63A3.07,3.07,0,0,1,58,131.58Z"/><path class="cls-3" d="M65,131.36V113.54h3.59a8,8,0,0,1,2.95.47,3.3,3.3,0,0,1,1.72,1.52,5.72,5.72,0,0,1,.57,2.74,7.82,7.82,0,0,1-.22,1.88,3.77,3.77,0,0,1-.71,1.43,2.78,2.78,0,0,1-1.27.85l2.53,8.93h-2.4L69.46,123H67.52v8.36Zm2.49-10.14h1a4.57,4.57,0,0,0,1.71-.27,1.75,1.75,0,0,0,1-.9,4.24,4.24,0,0,0,.31-1.78,3.59,3.59,0,0,0-.57-2.26,2.9,2.9,0,0,0-2.27-.69h-1.1Z"/><path class="cls-3" d="M75,131.36l3.78-17.82h2.4l3.8,17.82H82.59l-.81-4.49H78.15l-.86,4.49Zm3.52-6.27h3l-1.5-8Z"/><path class="cls-3" d="M86.18,131.36l.33-17.82H89L92.09,128l3.17-14.45h2.42L98,131.36H96l-.2-12.94-3,12.94H91.39l-3-12.94-.2,12.94Z"/><path class="cls-3" d="M99.24,131.36,103,113.54h2.39l3.81,17.82h-2.35l-.82-4.49h-3.63l-.85,4.49Zm3.52-6.27h3l-1.49-8Z"/><path class="cls-3" d="M114.89,131.56a4.76,4.76,0,0,1-2.94-.8,4,4,0,0,1-1.45-2.13,10.29,10.29,0,0,1-.41-3v-6.29a10.89,10.89,0,0,1,.41-3.15,3.79,3.79,0,0,1,1.45-2.08,5,5,0,0,1,2.94-.74,5,5,0,0,1,2.65.62,3.48,3.48,0,0,1,1.41,1.76,8,8,0,0,1,.42,2.75v1.41H117v-1.26a12.76,12.76,0,0,0-.1-1.74,1.84,1.84,0,0,0-.54-1.18,2.08,2.08,0,0,0-1.47-.42,1.88,1.88,0,0,0-2.17,1.73,12,12,0,0,0-.14,1.92V126a8,8,0,0,0,.22,2.13,1.86,1.86,0,0,0,.72,1.11,2.5,2.5,0,0,0,1.37.33,2,2,0,0,0,1.45-.45,2.16,2.16,0,0,0,.55-1.25,14,14,0,0,0,.11-1.84v-1.32h2.35v1.32a9.63,9.63,0,0,1-.39,2.87,3.66,3.66,0,0,1-1.37,1.93A4.54,4.54,0,0,1,114.89,131.56Z"/><path class="cls-3" d="M121.35,131.36V113.54h2.45v17.82Z"/><path class="cls-3" d="M130.7,131.56a5.2,5.2,0,0,1-2.88-.71,3.86,3.86,0,0,1-1.54-2,9.18,9.18,0,0,1-.46-3.07V119a8.77,8.77,0,0,1,.47-3,3.77,3.77,0,0,1,1.54-1.93,5.32,5.32,0,0,1,2.87-.68,5.15,5.15,0,0,1,2.86.69,3.78,3.78,0,0,1,1.53,1.93,8.47,8.47,0,0,1,.48,3v6.77a8.78,8.78,0,0,1-.48,3,3.94,3.94,0,0,1-1.53,2A5,5,0,0,1,130.7,131.56Zm0-2a2.37,2.37,0,0,0,1.5-.41,2,2,0,0,0,.68-1.14,7.36,7.36,0,0,0,.18-1.73v-7.81a7,7,0,0,0-.18-1.7,1.86,1.86,0,0,0-.68-1.1,3.08,3.08,0,0,0-3,0,1.84,1.84,0,0,0-.7,1.1,7.56,7.56,0,0,0-.17,1.7v7.81a8,8,0,0,0,.17,1.73,2,2,0,0,0,.7,1.14A2.37,2.37,0,0,0,130.7,129.6Zm-.61-17.12,1.3-4.35h2.35l-2.46,4.35Z"/><path class="cls-3" d="M137.48,131.36V113.54h1.69l5.06,11.83V113.54h2.07v17.82h-1.58l-5.13-12.17v12.17Z"/><polygon class="cls-4" points="122.52 39.42 112.89 76.89 112.89 39.42 122.52 39.42"/><path class="cls-4" d="M110,33.68V86.8H44V22.19H70.26l4.31,11.49ZM84.18,81.06V59.52H49.72V81.06Z"/><path class="cls-1" d="M77,65.26a1.44,1.44,0,0,1,0,2.87H74.13a1.44,1.44,0,1,1,0-2.87Z"/><path class="cls-1" d="M74.54,72.85a1.52,1.52,0,0,1,2,0,1.45,1.45,0,0,1-1,2.47,1.49,1.49,0,0,1-1-.44,1.46,1.46,0,0,1-.41-1A1.55,1.55,0,0,1,74.54,72.85Z"/><path class="cls-1" d="M71.26,73.88a1.44,1.44,0,0,1-1.44,1.44H56.91a1.44,1.44,0,0,1-1.44-1.44,1.43,1.43,0,0,1,1.44-1.43H69.82A1.43,1.43,0,0,1,71.26,73.88Z"/><path class="cls-1" d="M67.37,67.71a1.47,1.47,0,0,1-.42-1,1.44,1.44,0,0,1,2.45-1,1.45,1.45,0,0,1,.42,1,1.43,1.43,0,0,1-1.43,1.43A1.45,1.45,0,0,1,67.37,67.71Z"/><path class="cls-4" d="M62.65,65.26H56.91a1.44,1.44,0,1,0,0,2.87h5.74a1.44,1.44,0,0,0,0-2.87Zm7.17,1.44a1.45,1.45,0,0,0-.42-1,1.44,1.44,0,0,0-2.45,1,1.47,1.47,0,0,0,.42,1,1.45,1.45,0,0,0,1,.42,1.43,1.43,0,0,0,1.43-1.43Zm0,8.62a1.44,1.44,0,0,0,1.44-1.44,1.43,1.43,0,0,0-1.44-1.43H56.91a1.43,1.43,0,0,0-1.44,1.43,1.44,1.44,0,0,0,1.44,1.44Zm4.31-10.06a1.44,1.44,0,1,0,0,2.87H77a1.44,1.44,0,0,0,0-2.87Zm0,8.62a1.46,1.46,0,0,0,.41,1,1.49,1.49,0,0,0,1,.44,1.45,1.45,0,0,0,1-2.47,1.52,1.52,0,0,0-2,0A1.55,1.55,0,0,0,74.13,73.88ZM52.6,62.39H81.31v15.8H52.6Z"/><path class="cls-1" d="M62.65,68.13H56.91a1.44,1.44,0,1,1,0-2.87h5.74a1.44,1.44,0,0,1,0,2.87Z"/><path class="cls-1" d="M49.72,59.52H84.18V81.06H49.72Zm2.88,2.87v15.8H81.31V62.39Z"/><path class="cls-1" d="M110,86.8V33.68H74.57L70.26,22.19H44V86.8Zm2.87-9.91,9.63-37.47h-9.63Zm0-40.34h13.34L112.89,88.42v1.25H41.11V19.33H72.25l4.32,11.48h36.32Z"/></g></g></svg>