<svg xmlns="http://www.w3.org/2000/svg" xmlns:xlink="http://www.w3.org/1999/xlink" viewBox="0 0 467.35 121.73"><defs><style>.cls-1{fill:#00a0c6;}.cls-2{fill:#ccc;}.cls-3{fill:#4d4d4d;}.cls-4{fill:url(#linear-gradient);}.cls-5{fill:#fff;}</style><linearGradient id="linear-gradient" x1="70.91" y1="55.08" x2="130.63" y2="55.08" gradientUnits="userSpaceOnUse"><stop offset="0" stop-color="#d4e1f4"/><stop offset="0.17" stop-color="#d4e1f4"/><stop offset="0.2" stop-color="#d4e1f4"/><stop offset="0.2" stop-color="#dae4f4"/><stop offset="0.2" stop-color="#ebebf4"/><stop offset="0.2" stop-color="#f6f1f4"/><stop offset="0.2" stop-color="#fdf4f4"/><stop offset="0.2" stop-color="#fff5f4"/><stop offset="0.25" stop-color="#fff5f4"/><stop offset="0.26" stop-color="#fff5f4"/><stop offset="0.26" stop-color="#d4e1f4"/><stop offset="0.4" stop-color="#d4e1f4"/><stop offset="0.42" stop-color="#d4e1f4"/><stop offset="0.42" stop-color="#dae4f4"/><stop offset="0.42" stop-color="#ebebf4"/><stop offset="0.42" stop-color="#f6f1f4"/><stop offset="0.42" stop-color="#fdf4f4"/><stop offset="0.42" stop-color="#fff5f4"/><stop offset="0.49" stop-color="#fff5f4"/><stop offset="0.5" stop-color="#fff5f4"/><stop offset="0.5" stop-color="#f9f2f4"/><stop offset="0.5" stop-color="#e8ebf4"/><stop offset="0.5" stop-color="#dde5f4"/><stop offset="0.5" stop-color="#d6e2f4"/><stop offset="0.5" stop-color="#d4e1f4"/><stop offset="0.71" stop-color="#d4e1f4"/><stop offset="0.74" stop-color="#d4e1f4"/><stop offset="0.74" stop-color="#fff5f4"/><stop offset="0.83" stop-color="#fff5f4"/><stop offset="0.85" stop-color="#fff5f4"/><stop offset="0.85" stop-color="#d4e1f4"/></linearGradient></defs><title>btn-resultados3</title><g id="Capa_2" data-name="Capa 2"><g id="Layer_1" data-name="Layer 1"><rect class="cls-1" x="11.72" y="12.52" width="455.63" height="109.21"/><rect class="cls-2" width="455.63" height="110.25"/><path class="cls-3" d="M177.12,68.61V36.06h6.55a14.54,14.54,0,0,1,5.38.86,6,6,0,0,1,3.16,2.78,10.57,10.57,0,0,1,1,5,13.51,13.51,0,0,1-.4,3.43,6.64,6.64,0,0,1-1.29,2.62,5,5,0,0,1-2.33,1.54l4.62,16.32h-4.38L185.2,53.34h-3.54V68.61Zm4.54-18.53h1.73a8.58,8.58,0,0,0,3.13-.48A3.25,3.25,0,0,0,188.29,48a7.69,7.69,0,0,0,.56-3.25,6.52,6.52,0,0,0-1-4.12c-.7-.84-2.08-1.27-4.14-1.27h-2Z"/><path class="cls-3" d="M197,68.61V36.06h12.61v3.37h-8.07V50.2h6.55v3.22h-6.55V65.35h8.16v3.26Z"/><path class="cls-3" d="M220.07,69a8.44,8.44,0,0,1-4.68-1.21,7.57,7.57,0,0,1-2.83-3.33,14,14,0,0,1-1.13-5l4-1.08a18.33,18.33,0,0,0,.54,3.34,6.14,6.14,0,0,0,1.39,2.63,4.1,4.1,0,0,0,5.37,0,4.07,4.07,0,0,0,.9-2.84,5.79,5.79,0,0,0-1-3.55,18.4,18.4,0,0,0-2.53-2.71l-5.46-4.83a9.15,9.15,0,0,1-2.37-3.07,9.84,9.84,0,0,1-.77-4.12,7.34,7.34,0,0,1,2.05-5.54,7.71,7.71,0,0,1,5.59-2,10.52,10.52,0,0,1,3.39.5A6,6,0,0,1,225,37.83a7.62,7.62,0,0,1,1.56,2.63,15.1,15.1,0,0,1,.79,3.72l-3.86,1a16,16,0,0,0-.48-2.95,4.41,4.41,0,0,0-1.27-2.17,3.71,3.71,0,0,0-2.59-.83,3.61,3.61,0,0,0-2.63.91,3.52,3.52,0,0,0-1,2.67,5.34,5.34,0,0,0,.5,2.45,7.35,7.35,0,0,0,1.63,2l5.51,4.82a17.21,17.21,0,0,1,3.25,3.84,9.69,9.69,0,0,1,1.41,5.28,8.19,8.19,0,0,1-1,4.16A6.67,6.67,0,0,1,224.11,68,8.45,8.45,0,0,1,220.07,69Z"/><path class="cls-3" d="M238.84,69a9,9,0,0,1-5.43-1.41,7,7,0,0,1-2.57-4,23,23,0,0,1-.68-6V36.06h4.34V57.84a23.49,23.49,0,0,0,.28,3.81A5.08,5.08,0,0,0,236,64.39a4.55,4.55,0,0,0,5.69,0,5.15,5.15,0,0,0,1.21-2.74,24.67,24.67,0,0,0,.28-3.81V36.06h4.3V57.64a23,23,0,0,1-.69,6,7,7,0,0,1-2.55,4A8.84,8.84,0,0,1,238.84,69Z"/><path class="cls-3" d="M251.29,68.61V36.06h4.55V65.35h8.31v3.26Z"/><path class="cls-3" d="M269,68.61V39.43h-5.5V36.06h15.39v3.37h-5.34V68.61Z"/><path class="cls-3" d="M279.18,68.61l6.91-32.55h4.38l6.95,32.55h-4.3l-1.48-8.2H285l-1.57,8.2Zm6.43-11.46H291L288.3,42.49Z"/><path class="cls-3" d="M299.75,68.61V36.06h7.08a12.51,12.51,0,0,1,5.72,1.1,6.4,6.4,0,0,1,3,3.32,14.65,14.65,0,0,1,.9,5.5V58a16.48,16.48,0,0,1-.9,5.82,7,7,0,0,1-2.94,3.6,10.44,10.44,0,0,1-5.44,1.23Zm4.54-3.26h2.58a5.16,5.16,0,0,0,3.53-1,4.4,4.4,0,0,0,1.27-2.82,39.91,39.91,0,0,0,.22-4.46V46.55a21.45,21.45,0,0,0-.32-4.1,3.45,3.45,0,0,0-1.41-2.29,6.19,6.19,0,0,0-3.41-.73h-2.46Z"/><path class="cls-3" d="M328.28,69A9.48,9.48,0,0,1,323,67.68,7,7,0,0,1,320.21,64a16.72,16.72,0,0,1-.85-5.61V46.06a15.68,15.68,0,0,1,.87-5.52A6.87,6.87,0,0,1,323,37a9.84,9.84,0,0,1,5.24-1.22A9.57,9.57,0,0,1,333.51,37a7.07,7.07,0,0,1,2.79,3.54,15.76,15.76,0,0,1,.86,5.5V58.44A16.34,16.34,0,0,1,336.3,64a7.36,7.36,0,0,1-2.79,3.67A9.22,9.22,0,0,1,328.28,69Zm0-3.58a4.35,4.35,0,0,0,2.74-.74,3.69,3.69,0,0,0,1.24-2.09,14,14,0,0,0,.32-3.16V45.14a13.34,13.34,0,0,0-.32-3.11A3.48,3.48,0,0,0,331,40a4.48,4.48,0,0,0-2.74-.71,4.56,4.56,0,0,0-2.75.71,3.4,3.4,0,0,0-1.26,2,12.78,12.78,0,0,0-.33,3.11V59.4a13.39,13.39,0,0,0,.33,3.16,3.61,3.61,0,0,0,1.26,2.09A4.42,4.42,0,0,0,328.28,65.39Z"/><path class="cls-3" d="M348.33,69a8.44,8.44,0,0,1-4.68-1.21,7.57,7.57,0,0,1-2.83-3.33,13.75,13.75,0,0,1-1.12-5l4-1.08a17.51,17.51,0,0,0,.55,3.34,6,6,0,0,0,1.38,2.63,3.53,3.53,0,0,0,2.69,1,3.5,3.5,0,0,0,2.68-1,4.07,4.07,0,0,0,.9-2.84,5.86,5.86,0,0,0-1-3.55,18.5,18.5,0,0,0-2.54-2.71l-5.46-4.83a9.15,9.15,0,0,1-2.37-3.07,9.84,9.84,0,0,1-.76-4.12,7.34,7.34,0,0,1,2-5.54,7.71,7.71,0,0,1,5.59-2,10.52,10.52,0,0,1,3.39.5,6,6,0,0,1,2.46,1.55,7.47,7.47,0,0,1,1.56,2.63,15.1,15.1,0,0,1,.79,3.72l-3.86,1a16,16,0,0,0-.48-2.95A4.41,4.41,0,0,0,350,40.1a3.7,3.7,0,0,0-2.59-.83,3.63,3.63,0,0,0-2.63.91,3.52,3.52,0,0,0-.95,2.67,5.21,5.21,0,0,0,.51,2.45,7.11,7.11,0,0,0,1.62,2l5.51,4.82a17,17,0,0,1,3.25,3.84,9.69,9.69,0,0,1,1.41,5.28,8.19,8.19,0,0,1-1,4.16A6.61,6.61,0,0,1,352.37,68,8.45,8.45,0,0,1,348.33,69Z"/><path class="cls-4" d="M130.63,88.82A7.31,7.31,0,0,1,124,93.15H78.23a7.32,7.32,0,0,1-7.32-7.32V24.32A7.3,7.3,0,0,1,78,17a7.2,7.2,0,0,0-.6,2.19,7,7,0,0,0,0,.8V73.3a7.33,7.33,0,0,0,7.33,7.32h45.73C130.5,80.62,130.57,88.82,130.63,88.82Z"/><path class="cls-5" d="M96.1,67.25a2.15,2.15,0,0,0,3,0L114.79,52a2.16,2.16,0,0,0-3-3.09L97.61,62.69l-7.19-7,0,0a2.12,2.12,0,0,0-2.1-.54,2.15,2.15,0,0,0-.88,3.66Zm-11-46.19a9.48,9.48,0,0,0,9.42,9.51h13.1a9.47,9.47,0,0,0,9.42-9.51V19.13H124a5.22,5.22,0,0,1,5.19,5.19V80.63H84.7a7.32,7.32,0,0,1-7.32-7.32V20a5.42,5.42,0,0,1,.05-.81,4.18,4.18,0,0,1,.8-.07h6.89Z"/><path class="cls-1" d="M117.06,21.06a9.47,9.47,0,0,1-9.42,9.51H94.54a9.48,9.48,0,0,1-9.42-9.51V19.13H78.23a4.18,4.18,0,0,0-.8.07A5.22,5.22,0,0,0,73,24.32V85.83A5.19,5.19,0,0,0,78.23,91H124a5.19,5.19,0,0,0,5.19-5.16V24.32A5.22,5.22,0,0,0,124,19.13h-6.9Zm16.41,3.26V85.83A9.52,9.52,0,0,1,124,95.31H78.23a9.5,9.5,0,0,1-9.5-9.48V24.32a9.53,9.53,0,0,1,9.5-9.51H92.1a9.83,9.83,0,0,1,18,0H124A9.55,9.55,0,0,1,133.47,24.32Zm-25.82,1.93a5.15,5.15,0,0,0,5.1-5.19V19.13h-4.22a2.15,2.15,0,0,1-2.11-1.68,5.49,5.49,0,0,0-10.65,0,2.13,2.13,0,0,1-2.11,1.68H89.44v1.94a5.14,5.14,0,0,0,5.1,5.18Z"/><path class="cls-1" d="M111.78,48.86a2.16,2.16,0,0,1,3,3.09L99.12,67.25a2.15,2.15,0,0,1-3,0l-8.7-8.49a2.15,2.15,0,0,1,.88-3.66,2.12,2.12,0,0,1,2.1.54l0,0,7.19,7Z"/></g></g></svg>