<svg xmlns="http://www.w3.org/2000/svg" xmlns:xlink="http://www.w3.org/1999/xlink" viewBox="0 0 284.46 150.23"><defs><style>.cls-1{fill:#132942;}.cls-2{fill:#ccc;}.cls-3{fill:#4d4d4d;}.cls-4{fill:url(#linear-gradient);}.cls-5{fill:#fff;}</style><linearGradient id="linear-gradient" x1="104.04" y1="49.12" x2="163.77" y2="49.12" gradientUnits="userSpaceOnUse"><stop offset="0" stop-color="#d4e1f4"/><stop offset="0.17" stop-color="#d4e1f4"/><stop offset="0.2" stop-color="#d4e1f4"/><stop offset="0.2" stop-color="#dae4f4"/><stop offset="0.2" stop-color="#ebebf4"/><stop offset="0.2" stop-color="#f6f1f4"/><stop offset="0.2" stop-color="#fdf4f4"/><stop offset="0.2" stop-color="#fff5f4"/><stop offset="0.25" stop-color="#fff5f4"/><stop offset="0.26" stop-color="#fff5f4"/><stop offset="0.26" stop-color="#d4e1f4"/><stop offset="0.4" stop-color="#d4e1f4"/><stop offset="0.42" stop-color="#d4e1f4"/><stop offset="0.42" stop-color="#dae4f4"/><stop offset="0.42" stop-color="#ebebf4"/><stop offset="0.42" stop-color="#f6f1f4"/><stop offset="0.42" stop-color="#fdf4f4"/><stop offset="0.42" stop-color="#fff5f4"/><stop offset="0.49" stop-color="#fff5f4"/><stop offset="0.5" stop-color="#fff5f4"/><stop offset="0.5" stop-color="#f9f2f4"/><stop offset="0.5" stop-color="#e8ebf4"/><stop offset="0.5" stop-color="#dde5f4"/><stop offset="0.5" stop-color="#d6e2f4"/><stop offset="0.5" stop-color="#d4e1f4"/><stop offset="0.71" stop-color="#d4e1f4"/><stop offset="0.74" stop-color="#d4e1f4"/><stop offset="0.74" stop-color="#fff5f4"/><stop offset="0.83" stop-color="#fff5f4"/><stop offset="0.85" stop-color="#fff5f4"/><stop offset="0.85" stop-color="#d4e1f4"/></linearGradient></defs><title>btn-resultados4</title><g id="Capa_2" data-name="Capa 2"><g id="Layer_1" data-name="Layer 1"><rect class="cls-1" x="13" y="14" width="271.46" height="136.23"/><rect class="cls-2" width="271.46" height="136.23"/><path class="cls-3" d="M70.11,123.57V99.27H75a10.78,10.78,0,0,1,4,.64A4.48,4.48,0,0,1,81.37,102a7.91,7.91,0,0,1,.77,3.74,10.16,10.16,0,0,1-.3,2.56,5,5,0,0,1-1,2,3.75,3.75,0,0,1-1.74,1.16l3.45,12.18H79.32l-3.18-11.4H73.5v11.4Zm3.39-13.83h1.29a6.39,6.39,0,0,0,2.34-.36,2.41,2.41,0,0,0,1.32-1.23,5.7,5.7,0,0,0,.42-2.43,4.85,4.85,0,0,0-.78-3.08c-.52-.63-1.55-.94-3.09-.94H73.5Z"/><path class="cls-3" d="M85,123.57V99.27h9.42v2.52h-6v8h4.89v2.4H88.35v8.91h6.09v2.43Z"/><path class="cls-3" d="M102.18,123.84a6.34,6.34,0,0,1-3.5-.9,5.66,5.66,0,0,1-2.11-2.49,10.32,10.32,0,0,1-.84-3.69l3-.81a13.48,13.48,0,0,0,.4,2.49,4.44,4.44,0,0,0,1,2,2.63,2.63,0,0,0,2,.77,2.57,2.57,0,0,0,2-.74,3,3,0,0,0,.68-2.11,4.35,4.35,0,0,0-.75-2.66,13.94,13.94,0,0,0-1.89-2L98.13,110a6.88,6.88,0,0,1-1.77-2.3,7.35,7.35,0,0,1-.57-3.07,5.47,5.47,0,0,1,1.53-4.14,5.77,5.77,0,0,1,4.17-1.47,7.79,7.79,0,0,1,2.53.37,4.45,4.45,0,0,1,1.83,1.16,5.65,5.65,0,0,1,1.17,2,11.14,11.14,0,0,1,.59,2.78l-2.88.78a12,12,0,0,0-.36-2.21,3.29,3.29,0,0,0-1-1.62,3.29,3.29,0,0,0-3.9.06,2.65,2.65,0,0,0-.7,2,4,4,0,0,0,.37,1.83,5.39,5.39,0,0,0,1.22,1.47l4.11,3.6A12.81,12.81,0,0,1,107,114.1a7.26,7.26,0,0,1,1,4,6.11,6.11,0,0,1-.75,3.1,5.08,5.08,0,0,1-2.06,2A6.33,6.33,0,0,1,102.18,123.84Z"/><path class="cls-3" d="M116.19,123.84a6.69,6.69,0,0,1-4-1,5.25,5.25,0,0,1-1.92-3,17.29,17.29,0,0,1-.51-4.45V99.27H113v16.26a17.8,17.8,0,0,0,.21,2.85,3.78,3.78,0,0,0,.91,2,3.39,3.39,0,0,0,4.25,0,3.85,3.85,0,0,0,.9-2,17.8,17.8,0,0,0,.21-2.85V99.27h3.21v16.11a17.29,17.29,0,0,1-.51,4.45,5.29,5.29,0,0,1-1.91,3A6.61,6.61,0,0,1,116.19,123.84Z"/><path class="cls-3" d="M125.49,123.57V99.27h3.39v21.87h6.21v2.43Z"/><path class="cls-3" d="M138.69,123.57V101.79h-4.11V99.27h11.49v2.52h-4v21.78Z"/><path class="cls-3" d="M146.31,123.57l5.16-24.3h3.27l5.19,24.3h-3.21l-1.11-6.12h-5l-1.17,6.12Zm4.8-8.55h4l-2-11Z"/><path class="cls-3" d="M161.67,123.57V99.27H167a9.27,9.27,0,0,1,4.27.82,4.74,4.74,0,0,1,2.25,2.48,10.9,10.9,0,0,1,.68,4.11v8.94a12.26,12.26,0,0,1-.68,4.35,5.17,5.17,0,0,1-2.19,2.68,7.8,7.8,0,0,1-4.06.92Zm3.39-2.43H167a3.86,3.86,0,0,0,2.64-.72,3.27,3.27,0,0,0,.94-2.1,28.5,28.5,0,0,0,.17-3.33V107.1a15.77,15.77,0,0,0-.24-3.06,2.56,2.56,0,0,0-1.05-1.71,4.7,4.7,0,0,0-2.55-.54h-1.83Z"/><path class="cls-3" d="M183,123.84a7.1,7.1,0,0,1-3.93-1,5.27,5.27,0,0,1-2.1-2.75,12.55,12.55,0,0,1-.63-4.18v-9.21a11.83,11.83,0,0,1,.64-4.13,5.14,5.14,0,0,1,2.1-2.64,7.31,7.31,0,0,1,3.92-.91,7.12,7.12,0,0,1,3.9.93,5.24,5.24,0,0,1,2.08,2.64,11.66,11.66,0,0,1,.65,4.11V116a12.07,12.07,0,0,1-.65,4.14,5.45,5.45,0,0,1-2.08,2.74A6.86,6.86,0,0,1,183,123.84Zm0-2.67a3.2,3.2,0,0,0,2-.56,2.75,2.75,0,0,0,.93-1.56,10.18,10.18,0,0,0,.24-2.35V106.05a9.88,9.88,0,0,0-.24-2.33,2.59,2.59,0,0,0-.93-1.5,3.34,3.34,0,0,0-2-.52,3.42,3.42,0,0,0-2.06.52,2.55,2.55,0,0,0-.94,1.5,9.88,9.88,0,0,0-.24,2.33V116.7a10.18,10.18,0,0,0,.24,2.35,2.71,2.71,0,0,0,.94,1.56A3.28,3.28,0,0,0,183,121.17Z"/><path class="cls-3" d="M197.94,123.84a6.34,6.34,0,0,1-3.5-.9,5.66,5.66,0,0,1-2.11-2.49,10.32,10.32,0,0,1-.84-3.69l3-.81a13.48,13.48,0,0,0,.4,2.49,4.44,4.44,0,0,0,1,2,2.63,2.63,0,0,0,2,.77,2.57,2.57,0,0,0,2-.74,3,3,0,0,0,.68-2.11,4.35,4.35,0,0,0-.75-2.66,13.94,13.94,0,0,0-1.89-2l-4.08-3.6a6.75,6.75,0,0,1-1.77-2.3,7.35,7.35,0,0,1-.57-3.07,5.47,5.47,0,0,1,1.53-4.14,5.77,5.77,0,0,1,4.17-1.47,7.79,7.79,0,0,1,2.53.37,4.45,4.45,0,0,1,1.83,1.16,5.65,5.65,0,0,1,1.17,2,11.6,11.6,0,0,1,.59,2.78l-2.88.78a12,12,0,0,0-.36-2.21,3.29,3.29,0,0,0-.95-1.62,2.78,2.78,0,0,0-1.93-.61,2.74,2.74,0,0,0-2,.67,2.65,2.65,0,0,0-.7,2,4,4,0,0,0,.37,1.83,5.39,5.39,0,0,0,1.22,1.47l4.11,3.6a13.08,13.08,0,0,1,2.43,2.86,7.26,7.26,0,0,1,1,4,6.21,6.21,0,0,1-.75,3.1,5.14,5.14,0,0,1-2.06,2A6.33,6.33,0,0,1,197.94,123.84Z"/><path class="cls-4" d="M163.77,82.87a7.34,7.34,0,0,1-6.69,4.32H111.36A7.32,7.32,0,0,1,104,79.87V18.36a7.31,7.31,0,0,1,7.11-7.31,7.36,7.36,0,0,0-.6,2.19,7.19,7.19,0,0,0,0,.81v53.3a7.33,7.33,0,0,0,7.33,7.32h45.73C163.63,74.67,163.7,82.87,163.77,82.87Z"/><path class="cls-5" d="M130.74,61.91a2.16,2.16,0,0,0,1.51-.62L147.92,46a2.16,2.16,0,0,0-3-3.09L130.74,56.73l-7.19-7,0,0a2.12,2.12,0,0,0-2.1-.54,2.15,2.15,0,0,0-.88,3.66l8.7,8.49A2.16,2.16,0,0,0,130.74,61.91ZM118.25,15.1a9.48,9.48,0,0,0,9.42,9.51h13.1a9.47,9.47,0,0,0,9.42-9.51V13.17h6.9a5.22,5.22,0,0,1,5.19,5.19V74.67H117.83a7.32,7.32,0,0,1-7.32-7.32V14.05a5.42,5.42,0,0,1,0-.81,4.18,4.18,0,0,1,.8-.07h6.89Z"/><path class="cls-1" d="M150.19,15.1a9.47,9.47,0,0,1-9.42,9.51h-13.1a9.48,9.48,0,0,1-9.42-9.51V13.17h-6.89a4.18,4.18,0,0,0-.8.07,5.22,5.22,0,0,0-4.39,5.12V79.87A5.19,5.19,0,0,0,111.36,85h45.73a5.19,5.19,0,0,0,5.19-5.16V18.36a5.22,5.22,0,0,0-5.19-5.19h-6.9Zm16.41,3.26V79.87a9.52,9.52,0,0,1-9.51,9.48H111.36a9.5,9.5,0,0,1-9.5-9.48V18.36a9.53,9.53,0,0,1,9.5-9.51h13.87a9.83,9.83,0,0,1,18,0h13.87A9.55,9.55,0,0,1,166.6,18.36Zm-25.82,1.93a5.15,5.15,0,0,0,5.1-5.19V13.17h-4.22a2.15,2.15,0,0,1-2.11-1.68,5.49,5.49,0,0,0-10.65,0,2.13,2.13,0,0,1-2.11,1.68h-4.22v1.94a5.14,5.14,0,0,0,5.1,5.18Z"/><path class="cls-1" d="M121.41,49.14a2.12,2.12,0,0,1,2.1.54l0,0,7.19,7L144.91,42.9a2.16,2.16,0,0,1,3,3.09l-15.67,15.3a2.15,2.15,0,0,1-3,0l-8.7-8.49a2.15,2.15,0,0,1,.88-3.66Z"/></g></g></svg>