<svg xmlns="http://www.w3.org/2000/svg" xmlns:xlink="http://www.w3.org/1999/xlink" viewBox="0 0 467.35 121.73"><defs><style>.cls-1{fill:#00e530;}.cls-2{fill:#ccc;}.cls-3{fill:#4d4d4d;}.cls-4{fill:url(#linear-gradient);}.cls-5{fill:#7fa9db;}.cls-6{fill:#fff;}</style><linearGradient id="linear-gradient" x1="70.61" y1="58.08" x2="130.34" y2="58.08" gradientUnits="userSpaceOnUse"><stop offset="0" stop-color="#d4e1f4"/><stop offset="0.17" stop-color="#d4e1f4"/><stop offset="0.2" stop-color="#d4e1f4"/><stop offset="0.2" stop-color="#dae4f4"/><stop offset="0.2" stop-color="#ebebf4"/><stop offset="0.2" stop-color="#f6f1f4"/><stop offset="0.2" stop-color="#fdf4f4"/><stop offset="0.2" stop-color="#fff5f4"/><stop offset="0.25" stop-color="#fff5f4"/><stop offset="0.26" stop-color="#fff5f4"/><stop offset="0.26" stop-color="#d4e1f4"/><stop offset="0.4" stop-color="#d4e1f4"/><stop offset="0.42" stop-color="#d4e1f4"/><stop offset="0.42" stop-color="#dae4f4"/><stop offset="0.42" stop-color="#ebebf4"/><stop offset="0.42" stop-color="#f6f1f4"/><stop offset="0.42" stop-color="#fdf4f4"/><stop offset="0.42" stop-color="#fff5f4"/><stop offset="0.49" stop-color="#fff5f4"/><stop offset="0.5" stop-color="#fff5f4"/><stop offset="0.5" stop-color="#f9f2f4"/><stop offset="0.5" stop-color="#e8ebf4"/><stop offset="0.5" stop-color="#dde5f4"/><stop offset="0.5" stop-color="#d6e2f4"/><stop offset="0.5" stop-color="#d4e1f4"/><stop offset="0.71" stop-color="#d4e1f4"/><stop offset="0.74" stop-color="#d4e1f4"/><stop offset="0.74" stop-color="#fff5f4"/><stop offset="0.83" stop-color="#fff5f4"/><stop offset="0.85" stop-color="#fff5f4"/><stop offset="0.85" stop-color="#d4e1f4"/></linearGradient></defs><title>btn-resultados2_1</title><g id="Capa_2" data-name="Capa 2"><g id="Layer_1" data-name="Layer 1"><rect class="cls-1" x="11.72" y="12.52" width="455.63" height="109.21"/><rect class="cls-2" width="455.63" height="110.25"/><path class="cls-3" d="M176.82,68.61V36.06h6.55a14.54,14.54,0,0,1,5.38.86,6.07,6.07,0,0,1,3.16,2.77,10.64,10.64,0,0,1,1,5,13.51,13.51,0,0,1-.4,3.43,6.59,6.59,0,0,1-1.29,2.61,5,5,0,0,1-2.33,1.55l4.62,16.32h-4.38L184.9,53.34h-3.54V68.61Zm4.54-18.53h1.73a8.58,8.58,0,0,0,3.13-.48A3.25,3.25,0,0,0,188,48a7.72,7.72,0,0,0,.56-3.25,6.5,6.5,0,0,0-1-4.12c-.7-.85-2.08-1.27-4.14-1.27h-2Z"/><path class="cls-3" d="M196.71,68.61V36.06h12.62v3.37h-8.08V50.2h6.55v3.22h-6.55V65.35h8.16v3.26Z"/><path class="cls-3" d="M219.77,69a8.52,8.52,0,0,1-4.68-1.21,7.57,7.57,0,0,1-2.83-3.33,14,14,0,0,1-1.13-5l4-1.08a18.08,18.08,0,0,0,.54,3.33,6.12,6.12,0,0,0,1.39,2.64,4.1,4.1,0,0,0,5.37,0,4.07,4.07,0,0,0,.9-2.84,5.79,5.79,0,0,0-1-3.55,19,19,0,0,0-2.53-2.72l-5.46-4.82A9.15,9.15,0,0,1,212,47.41a9.87,9.87,0,0,1-.77-4.12,7.34,7.34,0,0,1,2-5.54,7.71,7.71,0,0,1,5.59-2,10.36,10.36,0,0,1,3.4.5,5.94,5.94,0,0,1,2.45,1.55,7.62,7.62,0,0,1,1.56,2.63,15,15,0,0,1,.79,3.71l-3.86,1a16,16,0,0,0-.48-2.95,4.41,4.41,0,0,0-1.27-2.17,3.71,3.71,0,0,0-2.59-.83,3.61,3.61,0,0,0-2.63.91,3.52,3.52,0,0,0-.95,2.67,5.34,5.34,0,0,0,.5,2.45,7.35,7.35,0,0,0,1.63,2l5.51,4.82a17.21,17.21,0,0,1,3.25,3.84,9.66,9.66,0,0,1,1.41,5.28,8.19,8.19,0,0,1-1,4.16A6.67,6.67,0,0,1,223.81,68,8.45,8.45,0,0,1,219.77,69Z"/><path class="cls-3" d="M238.54,69a9,9,0,0,1-5.43-1.41,7,7,0,0,1-2.57-4,23,23,0,0,1-.68-6V36.06h4.34V57.84a23.49,23.49,0,0,0,.28,3.81,5.15,5.15,0,0,0,1.22,2.74,4.55,4.55,0,0,0,5.69,0,5.15,5.15,0,0,0,1.21-2.74,24.67,24.67,0,0,0,.28-3.81V36.06h4.3V57.64a23,23,0,0,1-.69,6,7,7,0,0,1-2.55,4A8.84,8.84,0,0,1,238.54,69Z"/><path class="cls-3" d="M251,68.61V36.06h4.54V65.35h8.31v3.26Z"/><path class="cls-3" d="M268.67,68.61V39.43h-5.5V36.06h15.39v3.37h-5.34V68.61Z"/><path class="cls-3" d="M278.88,68.61l6.91-32.55h4.38l6.95,32.55h-4.29l-1.49-8.2h-6.63l-1.57,8.2Zm6.43-11.46h5.43L288,42.49Z"/><path class="cls-3" d="M299.45,68.61V36.06h7.08a12.51,12.51,0,0,1,5.72,1.1,6.37,6.37,0,0,1,3,3.32,14.65,14.65,0,0,1,.9,5.5V58a16.48,16.48,0,0,1-.9,5.82,7,7,0,0,1-2.94,3.6,10.41,10.41,0,0,1-5.44,1.23ZM304,65.35h2.57a5.16,5.16,0,0,0,3.53-1,4.4,4.4,0,0,0,1.27-2.82,40,40,0,0,0,.22-4.46V46.54a21.41,21.41,0,0,0-.32-4.09,3.45,3.45,0,0,0-1.41-2.29,6.19,6.19,0,0,0-3.41-.73H304Z"/><path class="cls-3" d="M328,69a9.48,9.48,0,0,1-5.26-1.29A7,7,0,0,1,319.91,64a16.61,16.61,0,0,1-.85-5.6V46.06a15.68,15.68,0,0,1,.87-5.52A6.87,6.87,0,0,1,322.74,37,9.75,9.75,0,0,1,328,35.78,9.57,9.57,0,0,1,333.21,37,7.07,7.07,0,0,1,336,40.56a15.49,15.49,0,0,1,.86,5.5V58.44A16,16,0,0,1,336,64a7.34,7.34,0,0,1-2.79,3.68A9.22,9.22,0,0,1,328,69Zm0-3.58a4.35,4.35,0,0,0,2.74-.74A3.69,3.69,0,0,0,332,62.56a14,14,0,0,0,.32-3.16V45.14A13.49,13.49,0,0,0,332,42a3.42,3.42,0,0,0-1.24-2,4.48,4.48,0,0,0-2.74-.71,4.56,4.56,0,0,0-2.75.71A3.35,3.35,0,0,0,324,42a12.92,12.92,0,0,0-.33,3.12V59.4a13.39,13.39,0,0,0,.33,3.16,3.61,3.61,0,0,0,1.26,2.09A4.42,4.42,0,0,0,328,65.39Z"/><path class="cls-3" d="M348,69a8.52,8.52,0,0,1-4.68-1.21,7.57,7.57,0,0,1-2.83-3.33,13.75,13.75,0,0,1-1.12-5l4-1.08a17.28,17.28,0,0,0,.55,3.33,6,6,0,0,0,1.38,2.64,3.53,3.53,0,0,0,2.69,1,3.5,3.5,0,0,0,2.68-1,4.07,4.07,0,0,0,.9-2.84,5.86,5.86,0,0,0-1-3.55,19.06,19.06,0,0,0-2.54-2.72l-5.46-4.82a9.15,9.15,0,0,1-2.37-3.07,9.88,9.88,0,0,1-.76-4.12,7.34,7.34,0,0,1,2-5.54,7.71,7.71,0,0,1,5.59-2,10.26,10.26,0,0,1,3.39.5A5.92,5.92,0,0,1,353,37.83a7.47,7.47,0,0,1,1.56,2.63,15,15,0,0,1,.79,3.71l-3.86,1a16,16,0,0,0-.48-2.95,4.41,4.41,0,0,0-1.27-2.17,3.7,3.7,0,0,0-2.59-.83,3.63,3.63,0,0,0-2.63.91,3.52,3.52,0,0,0-1,2.67A5.21,5.21,0,0,0,344,45.3a7.11,7.11,0,0,0,1.62,2l5.51,4.82a17,17,0,0,1,3.25,3.84,9.66,9.66,0,0,1,1.41,5.28,8.29,8.29,0,0,1-1,4.16A6.69,6.69,0,0,1,352.07,68,8.45,8.45,0,0,1,348,69Z"/><path class="cls-4" d="M130.34,91.82a7.34,7.34,0,0,1-6.68,4.33H77.93a7.32,7.32,0,0,1-7.32-7.32V27.32A7.3,7.3,0,0,1,77.72,20a7.18,7.18,0,0,0-.59,2.19,5.29,5.29,0,0,0,0,.8V76.3a7.32,7.32,0,0,0,7.32,7.32h45.73C130.21,83.62,130.27,91.82,130.34,91.82Z"/><path class="cls-5" d="M114.49,54.94,98.82,70.25a2.17,2.17,0,0,1-3,0l-8.71-8.5a2.16,2.16,0,1,1,3-3.12l0,0,7.2,7,14.17-13.82a2.15,2.15,0,0,1,3,3.08Z"/><path class="cls-1" d="M123.66,17.81H109.79a9.83,9.83,0,0,0-18,0H77.93a9.53,9.53,0,0,0-9.51,9.51V88.83a9.51,9.51,0,0,0,9.51,9.47h45.73a9.51,9.51,0,0,0,9.51-9.47V27.32A9.53,9.53,0,0,0,123.66,17.81ZM89.14,22.12h4.22a2.13,2.13,0,0,0,2.11-1.68,5.49,5.49,0,0,1,10.65,0,2.15,2.15,0,0,0,2.11,1.68h4.22v1.93a5.16,5.16,0,0,1-5.1,5.2H94.24a5.15,5.15,0,0,1-5.1-5.19Zm-4.32,0v1.93a9.46,9.46,0,0,0,9.42,9.51h13.1a9.46,9.46,0,0,0,9.42-9.51V22.12h6.9a5.23,5.23,0,0,1,5.19,5.2V88.83A5.19,5.19,0,0,1,123.66,94H77.93a5.19,5.19,0,0,1-5.19-5.16V27.32a5.2,5.2,0,0,1,4.39-5.12,4.17,4.17,0,0,1,.8-.08Z"/><path class="cls-6" d="M123.66,22.12h-6.9v1.93a9.46,9.46,0,0,1-9.42,9.51H94.24a9.46,9.46,0,0,1-9.42-9.51V22.12H77.93a4.17,4.17,0,0,0-.8.08,5.29,5.29,0,0,0,0,.8V76.3a7.32,7.32,0,0,0,7.32,7.32h44.45V27.32A5.23,5.23,0,0,0,123.66,22.12Z"/><path class="cls-1" d="M114.52,51.9a2.16,2.16,0,0,1,0,3L98.81,70.25a2.16,2.16,0,0,1-1.51.61,2.19,2.19,0,0,1-1.51-.61l-8.7-8.5a2.16,2.16,0,1,1,3-3.12l0,0,7.19,7,14.18-13.82A2.14,2.14,0,0,1,114.52,51.9Z"/></g></g></svg>