<svg xmlns="http://www.w3.org/2000/svg" viewBox="0 0 284.46 150.23"><defs><style>.cls-1{fill:#a7f3f4;}.cls-2{fill:#ccc;}.cls-3{fill:#4d4d4d;}.cls-4{fill:#fff;}</style></defs><title>btn-rollerderby</title><g id="Capa_2" data-name="Capa 2"><g id="Layer_1" data-name="Layer 1"><rect class="cls-1" x="13" y="14" width="271.46" height="136.23"/><rect class="cls-2" width="271.46" height="136.23"/><path class="cls-3" d="M52.33,123.57V99.27h4.89a10.78,10.78,0,0,1,4,.64A4.5,4.5,0,0,1,63.6,102a7.91,7.91,0,0,1,.76,3.74,10.16,10.16,0,0,1-.3,2.56,5,5,0,0,1-1,2,3.75,3.75,0,0,1-1.74,1.16l3.45,12.18H61.54l-3.18-11.4H55.72v11.4Zm3.39-13.83H57a6.39,6.39,0,0,0,2.34-.36,2.41,2.41,0,0,0,1.32-1.23,5.7,5.7,0,0,0,.42-2.43,4.85,4.85,0,0,0-.78-3.08c-.52-.63-1.55-.94-3.09-.94h-1.5Z"/><path class="cls-3" d="M73.39,123.84a7.1,7.1,0,0,1-3.93-1,5.27,5.27,0,0,1-2.1-2.75,12.55,12.55,0,0,1-.63-4.18v-9.21a11.82,11.82,0,0,1,.65-4.13,5.14,5.14,0,0,1,2.1-2.64,7.28,7.28,0,0,1,3.91-.91,7.12,7.12,0,0,1,3.9.93,5.26,5.26,0,0,1,2.09,2.64,11.67,11.67,0,0,1,.64,4.11V116a12.08,12.08,0,0,1-.64,4.14,5.47,5.47,0,0,1-2.09,2.74A6.86,6.86,0,0,1,73.39,123.84Zm0-2.67a3.2,3.2,0,0,0,2-.56,2.75,2.75,0,0,0,.93-1.56,10.18,10.18,0,0,0,.24-2.35V106.05a9.88,9.88,0,0,0-.24-2.33,2.59,2.59,0,0,0-.93-1.5,3.34,3.34,0,0,0-2-.52,3.39,3.39,0,0,0-2,.52,2.56,2.56,0,0,0-1,1.5,9.88,9.88,0,0,0-.24,2.33V116.7a10.18,10.18,0,0,0,.24,2.35,2.72,2.72,0,0,0,1,1.56A3.25,3.25,0,0,0,73.39,121.17Z"/><path class="cls-3" d="M82.63,123.57V99.27H86v21.87h6.21v2.43Z"/><path class="cls-3" d="M93.82,123.57V99.27h3.39v21.87h6.21v2.43Z"/><path class="cls-3" d="M105,123.57V99.27h9.42v2.52h-6v8h4.89v2.4H108.4v8.91h6.09v2.43Z"/><path class="cls-3" d="M116.5,123.57V99.27h4.89a10.78,10.78,0,0,1,4,.64,4.54,4.54,0,0,1,2.36,2.07,7.91,7.91,0,0,1,.76,3.74,10.16,10.16,0,0,1-.3,2.56,5,5,0,0,1-1,2,3.75,3.75,0,0,1-1.74,1.16L129,123.57h-3.27l-3.18-11.4h-2.64v11.4Zm3.39-13.83h1.29a6.39,6.39,0,0,0,2.34-.36,2.41,2.41,0,0,0,1.32-1.23,5.7,5.7,0,0,0,.42-2.43,4.85,4.85,0,0,0-.78-3.08c-.52-.63-1.55-.94-3.09-.94h-1.5Z"/><path class="cls-3" d="M137.5,123.57V99.27h5.28a9.34,9.34,0,0,1,4.28.82,4.74,4.74,0,0,1,2.25,2.48,11.11,11.11,0,0,1,.67,4.11v8.94a12.51,12.51,0,0,1-.67,4.35,5.17,5.17,0,0,1-2.19,2.68,7.84,7.84,0,0,1-4.07.92Zm3.39-2.43h1.92a3.86,3.86,0,0,0,2.64-.72,3.28,3.28,0,0,0,1-2.1,31.16,31.16,0,0,0,.16-3.33V107.1a15.77,15.77,0,0,0-.24-3.06,2.56,2.56,0,0,0-1-1.71,4.7,4.7,0,0,0-2.55-.54h-1.83Z"/><path class="cls-3" d="M152.59,123.57V99.27H162v2.52h-6v8h4.89v2.4H156v8.91h6.09v2.43Z"/><path class="cls-3" d="M164.08,123.57V99.27H169a10.78,10.78,0,0,1,4,.64,4.48,4.48,0,0,1,2.35,2.07,7.91,7.91,0,0,1,.77,3.74,10.16,10.16,0,0,1-.3,2.56,5,5,0,0,1-1,2,3.75,3.75,0,0,1-1.74,1.16l3.45,12.18h-3.27l-3.18-11.4h-2.64v11.4Zm3.39-13.83h1.29a6.39,6.39,0,0,0,2.34-.36,2.41,2.41,0,0,0,1.32-1.23,5.7,5.7,0,0,0,.42-2.43,4.85,4.85,0,0,0-.78-3.08c-.52-.63-1.55-.94-3.09-.94h-1.5Z"/><path class="cls-3" d="M178.93,123.57V99.27h5.58a10.18,10.18,0,0,1,2.87.36,5.08,5.08,0,0,1,2,1.11,4.49,4.49,0,0,1,1.2,1.9,8.53,8.53,0,0,1,.39,2.72,8,8,0,0,1-.37,2.59,3.77,3.77,0,0,1-1.15,1.73,3.93,3.93,0,0,1-2,.81,5.24,5.24,0,0,1,2.37,1.12,4.74,4.74,0,0,1,1.33,2,9.11,9.11,0,0,1,.44,3,10.59,10.59,0,0,1-.36,2.85,5.82,5.82,0,0,1-1.12,2.19,5.1,5.1,0,0,1-2,1.39,7.22,7.22,0,0,1-2.8.5Zm3.39-14.16h2a5.11,5.11,0,0,0,2.25-.41,2.26,2.26,0,0,0,1.14-1.3,6.92,6.92,0,0,0,.33-2.34,4.44,4.44,0,0,0-.51-2.43,2.32,2.32,0,0,0-1.59-1,16.53,16.53,0,0,0-2.82-.19h-.81Zm0,11.73h2.28c1.52,0,2.53-.36,3.05-1.07a6,6,0,0,0,.76-3.43,6.89,6.89,0,0,0-.41-2.57,3,3,0,0,0-1.29-1.56,4.62,4.62,0,0,0-2.38-.52h-2Z"/><path class="cls-3" d="M197.65,123.57V115L192.4,99.27h3.15L199.27,111l3.66-11.73h3.18L200.89,115v8.58Z"/><path class="cls-1" d="M101.7,48.7a39.39,39.39,0,0,0-8.38-.91H90.83V57h27.78A39.2,39.2,0,0,0,101.7,48.7Zm-8.38-3.92a42.43,42.43,0,0,1,7.2.62V33.15h-5a20.51,20.51,0,0,1-2,3.89,17.19,17.19,0,0,0-2,4.42,18,18,0,0,0-.62,3.32Zm67.59,13.74V62a4.55,4.55,0,0,1-4.54,4.54H156v3.76a11,11,0,1,1-15.11,2.75l-7.26-6.51h-18l-7.25,6.51a11.06,11.06,0,1,1-15.12-2.75V66.56h-.9A4.55,4.55,0,0,1,87.81,62V46.28A20.07,20.07,0,0,1,91,35.4a17.11,17.11,0,0,0,2-4.2h0a16.85,16.85,0,0,0,.76-5v-9a1.52,1.52,0,0,1,1.51-1.51H122a1.51,1.51,0,0,1,1.48,1.25l1.88,10.73a17.5,17.5,0,0,0,1.08,3.1,1.42,1.42,0,0,1,.28.58,17.37,17.37,0,0,0,10.69,8.87l.69.19L148.7,43a16,16,0,0,1,12.21,15.57Zm-3,3.5V60H90.83v2a1.52,1.52,0,0,0,1.52,1.52h64A1.53,1.53,0,0,0,157.9,62Zm-34.82-5h34.73A13,13,0,0,0,148,45.88l-1.92-.47v3.94a1.51,1.51,0,1,1-3,0V44.67l-4.6-1.12v3.92a1.51,1.51,0,1,1-3,0V42.71a20.2,20.2,0,0,1-4.6-2.3v2.78a1.51,1.51,0,0,1-3,0V38a20.41,20.41,0,0,1-3.59-4.8h-20.7V46A42.34,42.34,0,0,1,122.66,56.6Zm34.82,22.5a8,8,0,0,0-4.15-7l-.05,0a8,8,0,1,0,4.2,7.06ZM153,68.91V66.56H138.13L143,70.89a11,11,0,0,1,10-2ZM96.36,30.13h26.56c-.21-.61-.4-1.22-.55-1.85,0,0,0-.06,0-.1l-1.67-9.53h-9.31a6,6,0,0,1-5.21,9H96.7A20.38,20.38,0,0,1,96.36,30.13Zm9.93,40.76,4.82-4.34H96.27v2.36a11,11,0,0,1,10,2Zm2.87-49.24a3,3,0,0,0-3-3h-9.4v6h9.4A3,3,0,0,0,109.16,21.65Zm-1.74,57.86a8,8,0,0,0-11.88-7.06l-.05,0a8,8,0,1,0,11.93,7Z"/><path class="cls-4" d="M157.9,60v2a1.53,1.53,0,0,1-1.53,1.52h-64A1.52,1.52,0,0,1,90.83,62V60Z"/><path class="cls-4" d="M157.81,57H123.08l-.42-.41A42.34,42.34,0,0,0,103.54,46V33.15h20.7a20.41,20.41,0,0,0,3.59,4.8v5.24a1.51,1.51,0,0,0,3,0V40.41a20.2,20.2,0,0,0,4.6,2.3v4.76a1.51,1.51,0,1,0,3,0V43.55l4.6,1.12v4.68a1.51,1.51,0,1,0,3,0V45.41l1.92.47A13,13,0,0,1,157.81,57Z"/><path class="cls-4" d="M153.75,72.48a7,7,0,1,1-.05,0Z"/><path class="cls-4" d="M153,66.56v2.35a11,11,0,0,0-10,2l-4.83-4.33Z"/><path class="cls-4" d="M122.92,30.13H96.36a20.38,20.38,0,0,0,.34-2.47h9.46a6,6,0,0,0,5.21-9h9.31l1.67,9.53s0,.07,0,.1C122.52,28.91,122.71,29.52,122.92,30.13Z"/><path class="cls-4" d="M118.61,57H90.83V47.79h2.49A39.4,39.4,0,0,1,118.61,57Z"/><path class="cls-4" d="M111.11,66.55l-4.82,4.34a11,11,0,0,0-10-2V66.55Z"/><path class="cls-4" d="M108.28,19.53a3,3,0,0,1-2.12,5.12h-9.4v-6h9.4A3,3,0,0,1,108.28,19.53Z"/><path class="cls-4" d="M105.19,74a8,8,0,1,1-9.7-1.48l.05,0A8.06,8.06,0,0,1,105.19,74Z"/><path class="cls-4" d="M100.52,33.15V45.4a42.43,42.43,0,0,0-7.2-.62H90.9a18,18,0,0,1,.62-3.32,17.19,17.19,0,0,1,2-4.42,20.51,20.51,0,0,0,2-3.89Z"/></g></g></svg>