<svg xmlns="http://www.w3.org/2000/svg" xmlns:xlink="http://www.w3.org/1999/xlink" viewBox="0 0 466.35 121.41"><defs><style>.cls-1{fill:#00e530;}.cls-2{fill:#ccc;}.cls-3{fill:#4d4d4d;}.cls-4{fill:#a4c2f7;}.cls-5{fill:#e3e7f2;}.cls-6{fill:url(#linear-gradient);}.cls-7{fill:#fff;}</style><linearGradient id="linear-gradient" x1="-2131.29" y1="-1139.63" x2="-2131.13" y2="-1139.52" gradientTransform="translate(803575.32 599287.21) scale(377.01 525.83)" gradientUnits="userSpaceOnUse"><stop offset="0" stop-color="#d4e1f4"/><stop offset="0.17" stop-color="#d4e1f4"/><stop offset="0.2" stop-color="#d4e1f4"/><stop offset="0.2" stop-color="#dae4f4"/><stop offset="0.2" stop-color="#ebebf4"/><stop offset="0.2" stop-color="#f6f1f4"/><stop offset="0.2" stop-color="#fdf4f4"/><stop offset="0.2" stop-color="#fff5f4"/><stop offset="0.25" stop-color="#fff5f4"/><stop offset="0.26" stop-color="#fff5f4"/><stop offset="0.26" stop-color="#d4e1f4"/><stop offset="0.4" stop-color="#d4e1f4"/><stop offset="0.42" stop-color="#d4e1f4"/><stop offset="0.42" stop-color="#dae4f4"/><stop offset="0.42" stop-color="#ebebf4"/><stop offset="0.42" stop-color="#f6f1f4"/><stop offset="0.42" stop-color="#fdf4f4"/><stop offset="0.42" stop-color="#fff5f4"/><stop offset="0.49" stop-color="#fff5f4"/><stop offset="0.5" stop-color="#fff5f4"/><stop offset="0.5" stop-color="#f9f2f4"/><stop offset="0.5" stop-color="#e8ebf4"/><stop offset="0.5" stop-color="#dde5f4"/><stop offset="0.5" stop-color="#d6e2f4"/><stop offset="0.5" stop-color="#d4e1f4"/><stop offset="0.71" stop-color="#d4e1f4"/><stop offset="0.74" stop-color="#d4e1f4"/><stop offset="0.74" stop-color="#fff5f4"/><stop offset="0.83" stop-color="#fff5f4"/><stop offset="0.85" stop-color="#fff5f4"/><stop offset="0.85" stop-color="#d4e1f4"/></linearGradient></defs><title>btn-programacion2</title><g id="Capa_2" data-name="Capa 2"><g id="Layer_1" data-name="Layer 1"><rect class="cls-1" x="10.72" y="12.87" width="455.63" height="108.54"/><rect class="cls-2" width="455.63" height="110.27"/><path class="cls-3" d="M152.82,68.62V36.07h8.08a9,9,0,0,1,4.68,1.06,6.22,6.22,0,0,1,2.55,3.08,13.22,13.22,0,0,1,.8,4.86,10.26,10.26,0,0,1-.9,4.46,6.58,6.58,0,0,1-2.68,2.91,8.61,8.61,0,0,1-4.42,1h-3.57V68.62Zm4.54-18.41h2.09a8.58,8.58,0,0,0,3.09-.44,2.79,2.79,0,0,0,1.61-1.55,8,8,0,0,0,.48-3.11,14.32,14.32,0,0,0-.34-3.58,2.48,2.48,0,0,0-1.43-1.72,8.6,8.6,0,0,0-3.37-.49h-2.13Z"/><path class="cls-3" d="M171.14,68.62V36.07h6.55a14.59,14.59,0,0,1,5.39.86,6,6,0,0,1,3.15,2.78,10.6,10.6,0,0,1,1,5,13.51,13.51,0,0,1-.4,3.43,6.63,6.63,0,0,1-1.28,2.62,5,5,0,0,1-2.33,1.54l4.62,16.32h-4.38l-4.26-15.27h-3.54V68.62Zm4.54-18.53h1.73a8.58,8.58,0,0,0,3.13-.48A3.19,3.19,0,0,0,182.31,48a7.53,7.53,0,0,0,.56-3.25,6.52,6.52,0,0,0-1-4.12c-.7-.84-2.08-1.27-4.14-1.27h-2Z"/><path class="cls-3" d="M199.35,69a9.52,9.52,0,0,1-5.27-1.29A7,7,0,0,1,191.27,64a17,17,0,0,1-.84-5.61V46.07a15.92,15.92,0,0,1,.86-5.52A7,7,0,0,1,194.1,37a9.85,9.85,0,0,1,5.25-1.22A9.51,9.51,0,0,1,204.57,37a7,7,0,0,1,2.79,3.54,15.52,15.52,0,0,1,.87,5.5V58.45a16.09,16.09,0,0,1-.87,5.55,7.25,7.25,0,0,1-2.79,3.67A9.16,9.16,0,0,1,199.35,69Zm0-3.58a4.27,4.27,0,0,0,2.73-.74,3.7,3.7,0,0,0,1.25-2.09,14,14,0,0,0,.32-3.16V45.15a13.4,13.4,0,0,0-.32-3.11,3.49,3.49,0,0,0-1.25-2,4.47,4.47,0,0,0-2.73-.71,4.53,4.53,0,0,0-2.75.71,3.42,3.42,0,0,0-1.27,2,13.4,13.4,0,0,0-.32,3.11V59.41a14,14,0,0,0,.32,3.16,3.62,3.62,0,0,0,1.27,2.09A4.33,4.33,0,0,0,199.35,65.4Z"/><path class="cls-3" d="M219.48,69a8.23,8.23,0,0,1-4.88-1.31A7.24,7.24,0,0,1,212,63.92a19.21,19.21,0,0,1-.83-6V47a22,22,0,0,1,.74-6.09,7,7,0,0,1,2.66-3.84,9.24,9.24,0,0,1,5.32-1.32,10.22,10.22,0,0,1,4.92,1A6,6,0,0,1,227.48,40a14.47,14.47,0,0,1,.84,5.32v1.21h-4.26v-1a17.24,17.24,0,0,0-.28-3.47,3.25,3.25,0,0,0-1.15-2,4.39,4.39,0,0,0-2.71-.67,3.91,3.91,0,0,0-2.91.93,4.37,4.37,0,0,0-1.13,2.51,27.59,27.59,0,0,0-.22,3.6v12a19.34,19.34,0,0,0,.34,3.9,4,4,0,0,0,1.31,2.33,4.29,4.29,0,0,0,2.73.76,4,4,0,0,0,2.73-.84,4.4,4.4,0,0,0,1.33-2.49,19.67,19.67,0,0,0,.36-4.1V55.72h-4.14V52.5h8.24V68.62h-2.85l-.44-3.74a6.77,6.77,0,0,1-2,3A5.62,5.62,0,0,1,219.48,69Z"/><path class="cls-3" d="M232.26,68.62V36.07h6.55a14.54,14.54,0,0,1,5.38.86,6,6,0,0,1,3.16,2.78,10.6,10.6,0,0,1,1,5,13.51,13.51,0,0,1-.4,3.43,6.64,6.64,0,0,1-1.29,2.62,5,5,0,0,1-2.33,1.54L249,68.62h-4.38l-4.26-15.27H236.8V68.62Zm4.54-18.53h1.73a8.58,8.58,0,0,0,3.13-.48A3.25,3.25,0,0,0,243.43,48a7.69,7.69,0,0,0,.56-3.25,6.52,6.52,0,0,0-1-4.12c-.7-.84-2.08-1.27-4.14-1.27h-2Z"/><path class="cls-3" d="M250.38,68.62l6.91-32.55h4.38l6.95,32.55h-4.3l-1.49-8.2h-6.62l-1.57,8.2Zm6.43-11.46h5.42L259.5,42.5Z"/><path class="cls-3" d="M270.87,68.62l.61-32.55h4.45l5.75,26.4,5.79-26.4h4.42l.6,32.55h-3.66L288.47,45,283,68.62H280.4L274.93,45l-.36,23.63Z"/><path class="cls-3" d="M294.74,68.62l6.91-32.55H306l7,32.55h-4.3l-1.48-8.2h-6.63L299,68.62Zm6.43-11.46h5.42L303.86,42.5Z"/><path class="cls-3" d="M323.31,69A8.67,8.67,0,0,1,318,67.53a7.42,7.42,0,0,1-2.66-3.9,18.93,18.93,0,0,1-.74-5.46V46.68a20.12,20.12,0,0,1,.74-5.75,7,7,0,0,1,2.66-3.8,9.25,9.25,0,0,1,5.36-1.34,9,9,0,0,1,4.84,1.12,6.3,6.3,0,0,1,2.57,3.22,14.15,14.15,0,0,1,.79,5v2.57h-4.3V45.43a25,25,0,0,0-.18-3.19,3.44,3.44,0,0,0-1-2.15,3.83,3.83,0,0,0-2.69-.77,3.45,3.45,0,0,0-4,3.16,21.23,21.23,0,0,0-.26,3.51v12.9a14.77,14.77,0,0,0,.4,3.88,3.39,3.39,0,0,0,1.33,2,4.54,4.54,0,0,0,2.49.6,3.58,3.58,0,0,0,2.65-.82,4,4,0,0,0,1-2.27,25.61,25.61,0,0,0,.2-3.38V56.52h4.3v2.41a17.08,17.08,0,0,1-.73,5.25,6.67,6.67,0,0,1-2.49,3.53A8.41,8.41,0,0,1,323.31,69Z"/><path class="cls-3" d="M335.12,68.62V36.07h4.46V68.62Z"/><path class="cls-3" d="M352.2,69a9.46,9.46,0,0,1-5.26-1.29A7,7,0,0,1,344.12,64a17,17,0,0,1-.84-5.61V46.07a15.68,15.68,0,0,1,.87-5.52A6.87,6.87,0,0,1,347,37a9.82,9.82,0,0,1,5.24-1.22A9.51,9.51,0,0,1,357.42,37a7,7,0,0,1,2.8,3.54,15.76,15.76,0,0,1,.86,5.5V58.45a16.34,16.34,0,0,1-.86,5.55,7.32,7.32,0,0,1-2.8,3.67A9.16,9.16,0,0,1,352.2,69Zm0-3.58a4.23,4.23,0,0,0,2.73-.74,3.7,3.7,0,0,0,1.25-2.09,14,14,0,0,0,.32-3.16V45.15a13.4,13.4,0,0,0-.32-3.11,3.49,3.49,0,0,0-1.25-2,4.43,4.43,0,0,0-2.73-.71,4.56,4.56,0,0,0-2.75.71,3.46,3.46,0,0,0-1.27,2,13.4,13.4,0,0,0-.32,3.11V59.41a14,14,0,0,0,.32,3.16,3.67,3.67,0,0,0,1.27,2.09A4.35,4.35,0,0,0,352.2,65.4Zm-1.12-31.26,2.37-8h4.3l-4.5,8Z"/><path class="cls-3" d="M364.58,68.62V36.07h3.09l9.24,21.62V36.07h3.78V68.62H377.8L368.43,46.4V68.62Z"/><polygon class="cls-4" points="69.95 16.5 76.61 23.16 99.26 23.16 111.25 35.15 111.25 16.5 69.95 16.5"/><polygon class="cls-5" points="63.29 23.16 95.26 23.16 107.25 35.15 107.25 16.5 60.63 16.5 60.63 87.11 63.29 87.11 63.29 23.16"/><polygon class="cls-4" points="117.91 41.81 99.26 23.16 89.93 23.16 89.93 93.77 117.91 93.77 117.91 41.81"/><polygon class="cls-6" points="113.91 41.81 97.92 23.16 63.29 23.16 63.29 93.77 113.91 93.77 113.91 41.81"/><polygon class="cls-4" points="99.26 23.16 99.26 41.81 117.91 41.81 99.26 23.16"/><path class="cls-1" d="M107.25,51.14H74a1.33,1.33,0,1,1,0-2.66h33.3a1.33,1.33,0,0,1,0,2.66Z"/><path class="cls-1" d="M87.27,40.48H74a1.33,1.33,0,1,1,0-2.66H87.27a1.33,1.33,0,1,1,0,2.66Z"/><path class="cls-1" d="M107.25,61.8H74a1.34,1.34,0,1,1,0-2.67h33.3a1.34,1.34,0,0,1,0,2.67Z"/><path class="cls-1" d="M107.25,72.45H74a1.33,1.33,0,1,1,0-2.66h33.3a1.33,1.33,0,0,1,0,2.66Z"/><path class="cls-1" d="M107.25,83.11H74a1.33,1.33,0,1,1,0-2.66h33.3a1.33,1.33,0,0,1,0,2.66Z"/><path class="cls-1" d="M117.91,95.1H63.29A1.33,1.33,0,0,1,62,93.77V23.16a1.33,1.33,0,0,1,1.33-1.33h36a1.33,1.33,0,0,1,.94.39l18.65,18.65a1.33,1.33,0,0,1,.39.94v52a1.33,1.33,0,0,1-1.33,1.33ZM64.62,92.44h51.95V42.37L98.71,24.5H64.62Z"/><path class="cls-1" d="M117.91,43.15H99.26a1.33,1.33,0,0,1-1.34-1.34V23.16a1.34,1.34,0,0,1,2.28-.94l18.65,18.65a1.36,1.36,0,0,1,.29,1.46,1.34,1.34,0,0,1-1.23.82Zm-17.32-2.67h14.1l-14.1-14.1Z"/><path class="cls-1" d="M63.29,88.44H56.63a1.33,1.33,0,0,1-1.33-1.33V16.5a1.33,1.33,0,0,1,1.33-1.33h54.62a1.33,1.33,0,0,1,1.33,1.33V35.15a1.34,1.34,0,0,1-2.28,1L98.71,24.5H64.62V87.11a1.33,1.33,0,0,1-1.33,1.33ZM58,85.77h4V23.16a1.33,1.33,0,0,1,1.33-1.33h36a1.33,1.33,0,0,1,.94.39l9.71,9.72V17.84H58V85.77Z"/><rect class="cls-7" x="57.96" y="17.84" width="2.66" height="67.94"/></g></g></svg>