<svg xmlns="http://www.w3.org/2000/svg" viewBox="0 0 178.39 172.51"><defs><style>.cls-1{fill:#428dff;}.cls-2{fill:#ccc;}.cls-3{fill:#cce4ff;}.cls-4{fill:#007aff;}.cls-5{fill:#fff;}.cls-6{fill:#4d4d4d;}</style></defs><title>btn-tablas2</title><g id="Capa_2" data-name="Capa 2"><g id="Layer_1" data-name="Layer 1"><rect class="cls-1" x="14.59" y="9" width="163.8" height="163.52"/><rect class="cls-2" width="167.34" height="157.82"/><rect class="cls-3" x="100.93" y="45.87" width="11.51" height="40.28"/><rect class="cls-3" x="77.92" y="51.63" width="11.51" height="34.53"/><path class="cls-4" d="M52,31.49V89H69.29V31.49ZM63.53,83.28H57.77v-46h5.76Z"/><rect class="cls-5" x="57.77" y="37.24" width="5.75" height="46.04"/><path class="cls-4" d="M98.06,89h17.26V43H98.06Zm5.75-40.28h5.75V83.28h-5.75Z"/><path class="cls-4" d="M75,89H92.3V48.75H75ZM80.79,54.5h5.76V83.28H80.79Z"/><rect class="cls-4" x="98.06" y="31.48" width="17.26" height="5.76"/><rect class="cls-4" x="75.04" y="37.24" width="17.26" height="5.75"/><rect class="cls-4" x="52.02" y="19.98" width="17.26" height="5.75"/><path class="cls-6" d="M55.66,128.23v-16h-3v-1.84h8.43v1.84H58.15v16Z"/><path class="cls-6" d="M61.25,128.23,65,110.41h2.39l3.81,17.82H68.89l-.82-4.49H64.44l-.86,4.49ZM64.77,122h3l-1.49-8Z"/><path class="cls-6" d="M72.52,128.23V110.41h4.09a7.26,7.26,0,0,1,2.1.26,3.89,3.89,0,0,1,1.49.81,3.53,3.53,0,0,1,.88,1.4,6.29,6.29,0,0,1,.28,2,5.92,5.92,0,0,1-.27,1.9,2.84,2.84,0,0,1-.84,1.27,2.77,2.77,0,0,1-1.44.59,3.82,3.82,0,0,1,1.74.83,3.6,3.6,0,0,1,1,1.49,6.75,6.75,0,0,1,.32,2.19,7.56,7.56,0,0,1-.27,2.09,4.16,4.16,0,0,1-.82,1.61,3.74,3.74,0,0,1-1.43,1,5.37,5.37,0,0,1-2.06.37ZM75,117.84h1.48a3.74,3.74,0,0,0,1.65-.3,1.63,1.63,0,0,0,.83-1,5.09,5.09,0,0,0,.25-1.72,3.25,3.25,0,0,0-.38-1.78,1.67,1.67,0,0,0-1.16-.69,11.56,11.56,0,0,0-2.07-.15H75Zm0,8.6h1.68a2.61,2.61,0,0,0,2.23-.78,4.43,4.43,0,0,0,.56-2.52,5.18,5.18,0,0,0-.3-1.88,2.27,2.27,0,0,0-.94-1.14,3.41,3.41,0,0,0-1.75-.39H75Z"/><path class="cls-6" d="M83.52,128.23V110.41H86v16h4.56v1.79Z"/><path class="cls-6" d="M90.75,128.23l3.79-17.82h2.4l3.8,17.82H98.39l-.82-4.49H93.94l-.85,4.49ZM94.27,122h3l-1.49-8Z"/><path class="cls-6" d="M106.22,128.42a4.62,4.62,0,0,1-2.56-.66,4.12,4.12,0,0,1-1.55-1.82,7.45,7.45,0,0,1-.62-2.71l2.2-.59a9,9,0,0,0,.3,1.82,3.11,3.11,0,0,0,.76,1.44,1.9,1.9,0,0,0,1.47.57,1.87,1.87,0,0,0,1.46-.54,2.22,2.22,0,0,0,.5-1.55,3.22,3.22,0,0,0-.55-1.95,10.47,10.47,0,0,0-1.39-1.49l-3-2.64a5,5,0,0,1-1.3-1.68,5.39,5.39,0,0,1-.41-2.25,4,4,0,0,1,1.12-3,4.19,4.19,0,0,1,3-1.08,5.51,5.51,0,0,1,1.86.28,3.23,3.23,0,0,1,1.35.84,4.16,4.16,0,0,1,.85,1.44,7.71,7.71,0,0,1,.43,2l-2.11.57a8.71,8.71,0,0,0-.26-1.62,2.46,2.46,0,0,0-.7-1.18,2,2,0,0,0-1.42-.45,2,2,0,0,0-1.44.49,2,2,0,0,0-.51,1.46,3,3,0,0,0,.27,1.35,3.79,3.79,0,0,0,.89,1.07l3,2.64a9.6,9.6,0,0,1,1.78,2.1,5.36,5.36,0,0,1,.77,2.9,4.51,4.51,0,0,1-.55,2.27,3.75,3.75,0,0,1-1.51,1.47A4.74,4.74,0,0,1,106.22,128.42Z"/><path class="cls-6" d="M46.38,151.23V133.41h6.89v1.78h-4.4v5.94h3.41v1.76H48.87v8.34Z"/><path class="cls-6" d="M54.45,151.23V133.41h6.91v1.84H56.94v5.9h3.59v1.76H56.94v6.53h4.47v1.79Z"/><path class="cls-6" d="M62.84,151.23l.33-17.82h2.44l3.14,14.45,3.17-14.45h2.42l.33,17.82h-2l-.2-12.94-3,12.94H68.05l-3-12.94-.2,12.94Z"/><path class="cls-6" d="M76.87,151.23V133.41h6.91v1.84H79.36v5.9h3.58v1.76H79.36v6.53h4.46v1.79Z"/><path class="cls-6" d="M85.3,151.23V133.41H87l5.06,11.83V133.41h2.07v17.82H92.54l-5.13-12.17v12.17Z"/><path class="cls-6" d="M96.52,151.23V133.41H99v17.82Z"/><path class="cls-6" d="M101.31,151.23V133.41H103l5.06,11.83V133.41h2.07v17.82h-1.59l-5.12-12.17v12.17Z"/><path class="cls-6" d="M117,151.42a5.22,5.22,0,0,1-2.89-.7,3.91,3.91,0,0,1-1.54-2,9.49,9.49,0,0,1-.46-3.07v-6.76a8.75,8.75,0,0,1,.47-3,3.8,3.8,0,0,1,1.55-1.94,5.39,5.39,0,0,1,2.87-.67,5.28,5.28,0,0,1,2.86.68,3.91,3.91,0,0,1,1.53,1.94,8.69,8.69,0,0,1,.47,3v6.78a9,9,0,0,1-.47,3,4.09,4.09,0,0,1-1.53,2A5,5,0,0,1,117,151.42Zm0-1.95a2.32,2.32,0,0,0,1.49-.41,2,2,0,0,0,.68-1.14,7.42,7.42,0,0,0,.18-1.73v-7.81a7.12,7.12,0,0,0-.18-1.71,1.88,1.88,0,0,0-.68-1.1,2.46,2.46,0,0,0-1.49-.38,2.55,2.55,0,0,0-1.51.38,1.84,1.84,0,0,0-.69,1.1,7.12,7.12,0,0,0-.18,1.71v7.81a7.42,7.42,0,0,0,.18,1.73,1.91,1.91,0,0,0,.69,1.14A2.4,2.4,0,0,0,117,149.47Z"/></g></g></svg>