<svg xmlns="http://www.w3.org/2000/svg" viewBox="0 0 284.46 150.23"><defs><style>.cls-1{fill:#a7f3f4;}.cls-2{fill:#ccc;}.cls-3{fill:#4d4d4d;}.cls-4{fill:#fff;}</style></defs><title>btn-freestyle</title><g id="Capa_2" data-name="Capa 2"><g id="Layer_1" data-name="Layer 1"><rect class="cls-1" x="13" y="14" width="271.46" height="136.23"/><rect class="cls-2" width="271.46" height="136.23"/><path class="cls-3" d="M82.22,123.57V99.27h9.39v2.43h-6v8.1h4.65v2.4H85.61v11.37Z"/><path class="cls-3" d="M93.23,123.57V99.27h4.89a10.78,10.78,0,0,1,4,.64A4.5,4.5,0,0,1,104.5,102a7.91,7.91,0,0,1,.76,3.74,10.16,10.16,0,0,1-.3,2.56,5,5,0,0,1-1,2,3.75,3.75,0,0,1-1.74,1.16l3.45,12.18h-3.27l-3.18-11.4H96.62v11.4Zm3.39-13.83h1.29a6.39,6.39,0,0,0,2.34-.36,2.41,2.41,0,0,0,1.32-1.23,5.7,5.7,0,0,0,.42-2.43,4.85,4.85,0,0,0-.78-3.08c-.52-.63-1.55-.94-3.09-.94h-1.5Z"/><path class="cls-3" d="M108.08,123.57V99.27h9.42v2.52h-6v8h4.89v2.4h-4.89v8.91h6.09v2.43Z"/><path class="cls-3" d="M119.57,123.57V99.27H129v2.52h-6v8h4.89v2.4H123v8.91h6.09v2.43Z"/><path class="cls-3" d="M136.79,123.84a6.31,6.31,0,0,1-3.49-.9,5.68,5.68,0,0,1-2.12-2.49,10.32,10.32,0,0,1-.84-3.69l3-.81a13.48,13.48,0,0,0,.41,2.49,4.43,4.43,0,0,0,1,2,2.63,2.63,0,0,0,2,.77,2.59,2.59,0,0,0,2-.74,3,3,0,0,0,.67-2.11,4.35,4.35,0,0,0-.75-2.66,13.94,13.94,0,0,0-1.89-2l-4.08-3.6a6.88,6.88,0,0,1-1.77-2.3,7.35,7.35,0,0,1-.57-3.07,5.47,5.47,0,0,1,1.53-4.14,5.77,5.77,0,0,1,4.17-1.47,7.86,7.86,0,0,1,2.54.37,4.45,4.45,0,0,1,1.83,1.16,5.65,5.65,0,0,1,1.17,2,11.15,11.15,0,0,1,.58,2.78l-2.88.78a12,12,0,0,0-.36-2.21,3.28,3.28,0,0,0-.94-1.62,2.79,2.79,0,0,0-1.94-.61,2.71,2.71,0,0,0-2,.67,2.65,2.65,0,0,0-.71,2,3.94,3.94,0,0,0,.38,1.83,5.34,5.34,0,0,0,1.21,1.47l4.11,3.6a12.81,12.81,0,0,1,2.43,2.86,7.26,7.26,0,0,1,1.05,4,6.11,6.11,0,0,1-.75,3.1,5.06,5.06,0,0,1-2.05,2A6.38,6.38,0,0,1,136.79,123.84Z"/><path class="cls-3" d="M147.2,123.57V101.79h-4.11V99.27h11.49v2.52h-4v21.78Z"/><path class="cls-3" d="M159.92,123.57V115l-5.25-15.72h3.15L161.54,111l3.66-11.73h3.18L163.16,115v8.58Z"/><path class="cls-3" d="M169.91,123.57V99.27h3.39v21.87h6.21v2.43Z"/><path class="cls-3" d="M181.1,123.57V99.27h9.42v2.52h-6v8h4.89v2.4h-4.89v8.91h6.09v2.43Z"/><path class="cls-1" d="M167.5,69.44a8.84,8.84,0,1,1-9,10H153a8.83,8.83,0,0,1-17.51,0H133a8.83,8.83,0,0,1-17.51,0h-2.51a8.84,8.84,0,1,1-10.29-9.89,8.41,8.41,0,0,1-5.47-7.87V50a24.38,24.38,0,0,1,.56-5.18l4.5-20.28A8.22,8.22,0,0,1,110.31,18h20.28a3.66,3.66,0,0,1,3.65,3.65V24a2.25,2.25,0,0,1,1.4,2.08V28a1.19,1.19,0,0,1-2.37,0V26.19H110l.49,3.31a5.49,5.49,0,0,0,5.4,4.67h17.4V32.39a1.19,1.19,0,1,1,2.37,0v1.9a2.23,2.23,0,0,1-.58,1.5,16.93,16.93,0,0,0,3.09,5.61A16.49,16.49,0,0,0,142,44.82l.55-.45a2.43,2.43,0,0,1,1.49-.52,2.35,2.35,0,0,1,1.07.26,16.79,16.79,0,0,0,5.08,1.59l.47.07a2.32,2.32,0,0,1,1.94,1.7,1.89,1.89,0,0,1,.08.4l9.08,1.31A12.64,12.64,0,0,1,172.63,61.7,8.42,8.42,0,0,1,167.5,69.44Zm6.25,8.83a6.51,6.51,0,0,0-7.23-6.42l.65,2.09h.23a4.36,4.36,0,0,1,4.22,4.1,4.36,4.36,0,0,1-4.33,4.57,4.36,4.36,0,0,1-4.18-3.15h-2.18a6.46,6.46,0,0,0,12.82-1.19Zm-5,1.36a2,2,0,0,0,.53-1.46,2,2,0,0,0-1.91-1.87,1.58,1.58,0,0,0-.38,0,1.69,1.69,0,0,1-1.88-1.16L163.5,70.1H157a1.18,1.18,0,1,1,0-2.36h7.18a6,6,0,0,0,6-6,10.32,10.32,0,0,0-8.8-10.17l-9.77-1.42-10.54,8.83a2.56,2.56,0,0,1-1.59.57H128.47a1.68,1.68,0,0,1-1-3L140.1,46.38A19.85,19.85,0,0,1,138,44.65h-6.88A7.37,7.37,0,0,0,123.73,52a8.24,8.24,0,0,1-15.09,4.58L100.3,44.13l-.25,1.15A21.55,21.55,0,0,0,99.54,50V61.7a6,6,0,0,0,6,6h47.05a1.18,1.18,0,0,1,0,2.36H106.54l-.11.76-.57,4a1.69,1.69,0,0,1-.57,1,1.65,1.65,0,0,1-1.11.41,1.94,1.94,0,0,0-1.43.62,1.92,1.92,0,0,0-.54,1.46,2,2,0,0,0,3.92.16,1.68,1.68,0,0,1,1.66-1.45h12.79a1.67,1.67,0,0,1,1.66,1.45,2,2,0,0,0,3.9,0,1.69,1.69,0,0,1,1.67-1.45h12.78a1.69,1.69,0,0,1,1.67,1.45,2,2,0,0,0,3.9,0,1.68,1.68,0,0,1,1.66-1.45h15.85a1.68,1.68,0,0,1,1.66,1.45,2,2,0,0,0,3.39,1.09Zm-18.15-.17h-2.19a4.34,4.34,0,0,1-8.35,0h-2.18a6.47,6.47,0,0,0,12.72,0Zm-.2-31.33a0,0,0,0,0,0,0l-.47-.06a18.84,18.84,0,0,1-5.8-1.82h0L130.43,57.14h9.13s.05,0,.06,0Zm-19.28-5.85h4.73a19.46,19.46,0,0,1-3-5.74H115.87a7.89,7.89,0,0,1-7.75-6.69l-.5-3.45a2.25,2.25,0,0,1,2.22-2.58h22V21.65a1.3,1.3,0,0,0-1.29-1.29H110.31A5.88,5.88,0,0,0,104.54,25L101,40.93l9.6,14.35A5.87,5.87,0,0,0,121.36,52,9.75,9.75,0,0,1,131.09,42.28Zm-.54,37.18h-2.18a4.34,4.34,0,0,1-8.35,0h-2.19a6.47,6.47,0,0,0,12.72,0Zm-20,0h-2.19a4.34,4.34,0,0,1-8.5-.95A4.29,4.29,0,0,1,101,75.29,4.38,4.38,0,0,1,103.6,74l.3-2.16a6.47,6.47,0,1,0,6.64,7.65Z"/><path class="cls-4" d="M167.29,71.81a6.47,6.47,0,1,1-6.36,7.65h2.18a4.36,4.36,0,0,0,4.18,3.15A4.36,4.36,0,0,0,171.62,78a4.36,4.36,0,0,0-4.22-4.1h-.23l-.65-2.09A6.51,6.51,0,0,1,167.29,71.81Z"/><path class="cls-4" d="M169.25,78.17a2,2,0,0,1-3.92.37,1.68,1.68,0,0,0-1.66-1.45H147.82a1.68,1.68,0,0,0-1.66,1.45,2,2,0,0,1-3.9,0,1.69,1.69,0,0,0-1.67-1.45H127.81a1.69,1.69,0,0,0-1.67,1.45,2,2,0,0,1-3.9,0,1.67,1.67,0,0,0-1.66-1.45H107.79a1.68,1.68,0,0,0-1.66,1.45,2,2,0,0,1-3.92-.16,1.92,1.92,0,0,1,.54-1.46,1.94,1.94,0,0,1,1.43-.62,1.65,1.65,0,0,0,1.11-.41,1.69,1.69,0,0,0,.57-1l.57-4,.11-.76h46.09a1.18,1.18,0,0,0,0-2.36h-47a6,6,0,0,1-6-6V50a21.55,21.55,0,0,1,.51-4.67l.25-1.15,8.34,12.46A8.24,8.24,0,0,0,123.73,52a7.37,7.37,0,0,1,7.36-7.36H138a19.85,19.85,0,0,0,2.13,1.73L127.42,56.52a1.68,1.68,0,0,0,1,3h11.09a2.56,2.56,0,0,0,1.59-.57l10.54-8.83,9.77,1.42a10.32,10.32,0,0,1,8.8,10.17,6,6,0,0,1-6,6H157a1.18,1.18,0,1,0,0,2.36h6.46l1.58,5.07A1.69,1.69,0,0,0,167,76.33a1.58,1.58,0,0,1,.38,0A2,2,0,0,1,169.25,78.17Z"/><path class="cls-4" d="M148.38,79.46h2.19a6.47,6.47,0,0,1-12.72,0H140a4.34,4.34,0,0,0,8.35,0Z"/><path class="cls-4" d="M150.37,48.13l-10.75,9s0,0-.06,0h-9.13l13.64-10.92h0a18.84,18.84,0,0,0,5.8,1.82l.47.06A0,0,0,0,1,150.37,48.13Z"/><path class="cls-4" d="M128.37,79.46h2.18a6.47,6.47,0,0,1-12.72,0H120a4.34,4.34,0,0,0,8.35,0Z"/><path class="cls-1" d="M115.25,47a4.61,4.61,0,1,1-4.6,4.6A4.62,4.62,0,0,1,115.25,47Zm2.24,4.6a2.24,2.24,0,1,0-2.24,2.24A2.24,2.24,0,0,0,117.49,51.57Z"/><path class="cls-4" d="M115.25,49.34A2.24,2.24,0,1,1,113,51.57,2.24,2.24,0,0,1,115.25,49.34Z"/><path class="cls-4" d="M117.84,57.39a5.87,5.87,0,0,1-7.23-2.11L101,40.93,104.54,25a5.88,5.88,0,0,1,5.77-4.64h20.28a1.3,1.3,0,0,1,1.29,1.29v2.17h-22a2.25,2.25,0,0,0-2.22,2.58l.5,3.45a7.89,7.89,0,0,0,7.75,6.69h16.94a19.46,19.46,0,0,0,3,5.74h-4.73A9.75,9.75,0,0,0,121.36,52,5.87,5.87,0,0,1,117.84,57.39Zm2-5.82a4.61,4.61,0,1,0-4.61,4.61A4.62,4.62,0,0,0,119.86,51.57Z"/><path class="cls-4" d="M108.35,79.46h2.19a6.47,6.47,0,1,1-6.64-7.65L103.6,74A4.38,4.38,0,0,0,101,75.29a4.29,4.29,0,0,0-1.18,3.22,4.34,4.34,0,0,0,8.5.95Z"/></g></g></svg>