<svg xmlns="http://www.w3.org/2000/svg" viewBox="0 0 176.68 172.51"><defs><style>.cls-1{fill:#428dff;}.cls-2{fill:#ccc;}.cls-3{fill:#4d4d4d;}.cls-4{fill:#cce4ff;}.cls-5{fill:#007aff;}.cls-6{fill:#fff;}</style></defs><title>btn-tablas1</title><g id="Capa_2" data-name="Capa 2"><g id="Layer_1" data-name="Layer 1"><rect class="cls-1" x="12.88" y="9" width="163.8" height="163.52"/><rect class="cls-2" width="167.34" height="157.82"/><path class="cls-3" d="M55.66,128.23v-16h-3v-1.84h8.43v1.84H58.15v16Z"/><path class="cls-3" d="M61.25,128.23,65,110.41h2.39l3.81,17.82H68.89l-.82-4.49H64.44l-.86,4.49ZM64.77,122h3l-1.49-8Z"/><path class="cls-3" d="M72.52,128.23V110.41h4.09a7.26,7.26,0,0,1,2.1.26,3.89,3.89,0,0,1,1.49.81,3.53,3.53,0,0,1,.88,1.4,6.29,6.29,0,0,1,.28,2,5.92,5.92,0,0,1-.27,1.9,2.84,2.84,0,0,1-.84,1.27,2.77,2.77,0,0,1-1.44.59,3.82,3.82,0,0,1,1.74.83,3.6,3.6,0,0,1,1,1.49,6.75,6.75,0,0,1,.32,2.19,7.56,7.56,0,0,1-.27,2.09,4.16,4.16,0,0,1-.82,1.61,3.74,3.74,0,0,1-1.43,1,5.37,5.37,0,0,1-2.06.37ZM75,117.84h1.48a3.74,3.74,0,0,0,1.65-.3,1.63,1.63,0,0,0,.83-1,5.09,5.09,0,0,0,.25-1.72,3.25,3.25,0,0,0-.38-1.78,1.67,1.67,0,0,0-1.16-.69,11.56,11.56,0,0,0-2.07-.15H75Zm0,8.6h1.68a2.61,2.61,0,0,0,2.23-.78,4.43,4.43,0,0,0,.56-2.52,5.18,5.18,0,0,0-.3-1.88,2.27,2.27,0,0,0-.94-1.14,3.41,3.41,0,0,0-1.75-.39H75Z"/><path class="cls-3" d="M83.52,128.23V110.41H86v16h4.56v1.79Z"/><path class="cls-3" d="M90.75,128.23l3.79-17.82h2.4l3.8,17.82H98.39l-.82-4.49H93.94l-.85,4.49ZM94.27,122h3l-1.49-8Z"/><path class="cls-3" d="M106.22,128.42a4.62,4.62,0,0,1-2.56-.66,4.12,4.12,0,0,1-1.55-1.82,7.45,7.45,0,0,1-.62-2.71l2.2-.59a9,9,0,0,0,.3,1.82,3.11,3.11,0,0,0,.76,1.44,1.9,1.9,0,0,0,1.47.57,1.87,1.87,0,0,0,1.46-.54,2.22,2.22,0,0,0,.5-1.55,3.22,3.22,0,0,0-.55-1.95,10.47,10.47,0,0,0-1.39-1.49l-3-2.64a5,5,0,0,1-1.3-1.68,5.39,5.39,0,0,1-.41-2.25,4,4,0,0,1,1.12-3,4.19,4.19,0,0,1,3-1.08,5.51,5.51,0,0,1,1.86.28,3.23,3.23,0,0,1,1.35.84,4.16,4.16,0,0,1,.85,1.44,7.71,7.71,0,0,1,.43,2l-2.11.57a8.71,8.71,0,0,0-.26-1.62,2.46,2.46,0,0,0-.7-1.18,2,2,0,0,0-1.42-.45,2,2,0,0,0-1.44.49,2,2,0,0,0-.51,1.46,3,3,0,0,0,.27,1.35,3.79,3.79,0,0,0,.89,1.07l3,2.64a9.6,9.6,0,0,1,1.78,2.1,5.36,5.36,0,0,1,.77,2.9,4.51,4.51,0,0,1-.55,2.27,3.75,3.75,0,0,1-1.51,1.47A4.74,4.74,0,0,1,106.22,128.42Z"/><path class="cls-3" d="M39,151.23l.33-17.82h2.45L45,147.86l3.17-14.45h2.42l.33,17.82h-2l-.2-12.94-3,12.94H44.26l-3-12.94-.2,12.94Z"/><path class="cls-3" d="M52.11,151.23l3.78-17.82h2.4l3.81,17.82H59.74l-.81-4.49H55.3l-.86,4.49ZM55.63,145h3l-1.49-8Z"/><path class="cls-3" d="M67.58,151.42a4.62,4.62,0,0,1-2.56-.66,4.2,4.2,0,0,1-1.56-1.82,7.66,7.66,0,0,1-.61-2.71l2.2-.59a9,9,0,0,0,.3,1.82,3.19,3.19,0,0,0,.75,1.44,1.94,1.94,0,0,0,1.48.57,1.89,1.89,0,0,0,1.46-.54,2.22,2.22,0,0,0,.5-1.55,3.22,3.22,0,0,0-.55-1.95,10.47,10.47,0,0,0-1.39-1.49l-3-2.64a5,5,0,0,1-1.3-1.68,5.38,5.38,0,0,1-.42-2.25,4,4,0,0,1,1.12-3,4.23,4.23,0,0,1,3.06-1.08,5.55,5.55,0,0,1,1.86.28,3.19,3.19,0,0,1,1.34.84,4.18,4.18,0,0,1,.86,1.44,8.13,8.13,0,0,1,.43,2l-2.11.57a8.69,8.69,0,0,0-.27-1.62,2.37,2.37,0,0,0-.69-1.18,2,2,0,0,0-1.42-.45,2,2,0,0,0-1.44.49,2,2,0,0,0-.52,1.46,3,3,0,0,0,.28,1.35,3.79,3.79,0,0,0,.89,1.07l3,2.64a9.64,9.64,0,0,1,1.79,2.1,5.36,5.36,0,0,1,.77,2.9,4.42,4.42,0,0,1-.56,2.27,3.66,3.66,0,0,1-1.5,1.47A4.77,4.77,0,0,1,67.58,151.42Z"/><path class="cls-3" d="M77.72,151.42a4.78,4.78,0,0,1-2.94-.79,4.13,4.13,0,0,1-1.45-2.13,10.34,10.34,0,0,1-.41-3v-6.3a10.87,10.87,0,0,1,.41-3.14A3.81,3.81,0,0,1,74.78,134a5.07,5.07,0,0,1,2.94-.74,5,5,0,0,1,2.65.62,3.48,3.48,0,0,1,1.41,1.76,8,8,0,0,1,.43,2.75v1.41H79.85v-1.26a13,13,0,0,0-.1-1.75,1.81,1.81,0,0,0-.54-1.17,2.08,2.08,0,0,0-1.47-.42,1.88,1.88,0,0,0-2.17,1.73,11.89,11.89,0,0,0-.14,1.92v7.06a8.38,8.38,0,0,0,.22,2.12,1.89,1.89,0,0,0,.73,1.12,2.44,2.44,0,0,0,1.36.33,1.91,1.91,0,0,0,1.45-.46,2.07,2.07,0,0,0,.55-1.24,12.6,12.6,0,0,0,.11-1.85V144.6h2.36v1.32a9.21,9.21,0,0,1-.4,2.87,3.67,3.67,0,0,1-1.36,1.94A4.67,4.67,0,0,1,77.72,151.42Z"/><path class="cls-3" d="M88.65,151.42a4.87,4.87,0,0,1-3-.77,3.8,3.8,0,0,1-1.4-2.16,12.66,12.66,0,0,1-.38-3.27V133.41h2.38v11.92a13.42,13.42,0,0,0,.15,2.09,2.82,2.82,0,0,0,.67,1.5,2.06,2.06,0,0,0,1.55.55,2,2,0,0,0,1.56-.55,2.81,2.81,0,0,0,.66-1.5,12.24,12.24,0,0,0,.16-2.09V133.41h2.35v11.81a12.69,12.69,0,0,1-.37,3.27,3.85,3.85,0,0,1-1.4,2.16A4.81,4.81,0,0,1,88.65,151.42Z"/><path class="cls-3" d="M95.47,151.23V133.41H98v16h4.55v1.79Z"/><path class="cls-3" d="M103.81,151.23V133.41h2.44v17.82Z"/><path class="cls-3" d="M108.61,151.23V133.41h1.69l5.06,11.83V133.41h2.07v17.82h-1.58l-5.13-12.17v12.17Z"/><path class="cls-3" d="M124.25,151.42a5.2,5.2,0,0,1-2.88-.7,3.86,3.86,0,0,1-1.54-2,9.22,9.22,0,0,1-.46-3.07v-6.76a8.52,8.52,0,0,1,.47-3,3.78,3.78,0,0,1,1.54-1.94,5.42,5.42,0,0,1,2.87-.67,5.26,5.26,0,0,1,2.86.68,3.91,3.91,0,0,1,1.53,1.94,8.46,8.46,0,0,1,.47,3v6.78a8.79,8.79,0,0,1-.47,3,4.09,4.09,0,0,1-1.53,2A5,5,0,0,1,124.25,151.42Zm0-1.95a2.37,2.37,0,0,0,1.5-.41,2.06,2.06,0,0,0,.68-1.14,8,8,0,0,0,.17-1.73v-7.81a7.72,7.72,0,0,0-.17-1.71,2,2,0,0,0-.68-1.1,2.51,2.51,0,0,0-1.5-.38,2.57,2.57,0,0,0-1.51.38,1.94,1.94,0,0,0-.69,1.1,7.12,7.12,0,0,0-.18,1.71v7.81a7.42,7.42,0,0,0,.18,1.73,2,2,0,0,0,.69,1.14A2.42,2.42,0,0,0,124.25,149.47Z"/><rect class="cls-4" x="100.93" y="45.87" width="11.51" height="40.28"/><rect class="cls-4" x="77.92" y="51.63" width="11.51" height="34.53"/><path class="cls-5" d="M52,31.49V89H69.29V31.49ZM63.53,83.28H57.77v-46h5.76Z"/><rect class="cls-6" x="57.77" y="37.24" width="5.75" height="46.04"/><path class="cls-5" d="M98.06,89h17.26V43H98.06Zm5.75-40.28h5.75V83.28h-5.75Z"/><path class="cls-5" d="M75,89H92.3V48.75H75ZM80.79,54.5h5.76V83.28H80.79Z"/><rect class="cls-5" x="98.06" y="31.48" width="17.26" height="5.76"/><rect class="cls-5" x="75.04" y="37.24" width="17.26" height="5.75"/><rect class="cls-5" x="52.02" y="19.98" width="17.26" height="5.75"/></g></g></svg>