<svg xmlns="http://www.w3.org/2000/svg" viewBox="0 0 284.46 150.23"><defs><style>.cls-1{fill:#a7f3f4;}.cls-2{fill:#ccc;}.cls-3{fill:#4d4d4d;}.cls-4{fill:#fff;}</style></defs><title>btn-skateboarding</title><g id="Capa_2" data-name="Capa 2"><g id="Layer_1" data-name="Layer 1"><rect class="cls-1" x="13" y="14" width="271.46" height="136.23"/><rect class="cls-2" width="271.46" height="136.23"/><path class="cls-3" d="M56.84,123.84a6.34,6.34,0,0,1-3.5-.9,5.66,5.66,0,0,1-2.11-2.49,10.32,10.32,0,0,1-.84-3.69l3-.81a13.48,13.48,0,0,0,.4,2.49,4.44,4.44,0,0,0,1,2,2.63,2.63,0,0,0,2,.77,2.57,2.57,0,0,0,2-.74,3,3,0,0,0,.68-2.11,4.35,4.35,0,0,0-.75-2.66,13.94,13.94,0,0,0-1.89-2L52.79,110a6.88,6.88,0,0,1-1.77-2.3,7.35,7.35,0,0,1-.57-3.07A5.47,5.47,0,0,1,52,100.53a5.77,5.77,0,0,1,4.17-1.47,7.79,7.79,0,0,1,2.53.37,4.45,4.45,0,0,1,1.83,1.16,5.65,5.65,0,0,1,1.17,2,11.14,11.14,0,0,1,.59,2.78l-2.88.78A12,12,0,0,0,59,103.9a3.29,3.29,0,0,0-1-1.62,3.29,3.29,0,0,0-3.9.06,2.65,2.65,0,0,0-.7,2,4,4,0,0,0,.37,1.83,5.39,5.39,0,0,0,1.22,1.47l4.11,3.6a12.81,12.81,0,0,1,2.43,2.86,7.26,7.26,0,0,1,1,4,6.11,6.11,0,0,1-.75,3.1,5.08,5.08,0,0,1-2.06,2A6.33,6.33,0,0,1,56.84,123.84Z"/><path class="cls-3" d="M64.58,123.57V99.27H68v11.46l5.58-11.46H76.7L71.9,110l5.58,13.59h-3.3l-4.65-11.4L68,115v8.58Z"/><path class="cls-3" d="M77.39,123.57l5.16-24.3h3.27L91,123.57H87.8l-1.11-6.12h-5l-1.17,6.12Zm4.8-8.55h4l-2-11Z"/><path class="cls-3" d="M94.46,123.57V101.79H90.35V99.27h11.49v2.52h-4v21.78Z"/><path class="cls-3" d="M103.46,123.57V99.27h9.42v2.52h-6v8h4.89v2.4h-4.89v8.91h6.09v2.43Z"/><path class="cls-3" d="M115,123.57V99.27h5.58a10.1,10.1,0,0,1,2.86.36,5,5,0,0,1,2,1.11,4.49,4.49,0,0,1,1.2,1.9,8.53,8.53,0,0,1,.39,2.72,8,8,0,0,1-.38,2.59,3.76,3.76,0,0,1-1.14,1.73,3.93,3.93,0,0,1-2,.81,5.24,5.24,0,0,1,2.37,1.12,4.74,4.74,0,0,1,1.33,2,9.11,9.11,0,0,1,.44,3,10.59,10.59,0,0,1-.36,2.85,5.7,5.7,0,0,1-1.13,2.19,5.07,5.07,0,0,1-2,1.39,7.22,7.22,0,0,1-2.8.5Zm3.39-14.16h2a5.11,5.11,0,0,0,2.25-.41,2.26,2.26,0,0,0,1.14-1.3,6.92,6.92,0,0,0,.33-2.34,4.44,4.44,0,0,0-.51-2.43,2.32,2.32,0,0,0-1.59-1,16.53,16.53,0,0,0-2.82-.19h-.81Zm0,11.73h2.28c1.52,0,2.53-.36,3-1.07a6,6,0,0,0,.77-3.43,7.1,7.1,0,0,0-.41-2.57,3,3,0,0,0-1.29-1.56,4.64,4.64,0,0,0-2.38-.52h-2Z"/><path class="cls-3" d="M136.16,123.84a7.1,7.1,0,0,1-3.93-1,5.27,5.27,0,0,1-2.1-2.75,12.55,12.55,0,0,1-.63-4.18v-9.21a11.83,11.83,0,0,1,.64-4.13,5.14,5.14,0,0,1,2.1-2.64,7.31,7.31,0,0,1,3.92-.91,7.15,7.15,0,0,1,3.9.93,5.24,5.24,0,0,1,2.08,2.64,11.66,11.66,0,0,1,.65,4.11V116a12.07,12.07,0,0,1-.65,4.14,5.45,5.45,0,0,1-2.08,2.74A6.89,6.89,0,0,1,136.16,123.84Zm0-2.67a3.2,3.2,0,0,0,2-.56,2.75,2.75,0,0,0,.93-1.56,10.18,10.18,0,0,0,.24-2.35V106.05a9.88,9.88,0,0,0-.24-2.33,2.59,2.59,0,0,0-.93-1.5,3.34,3.34,0,0,0-2-.52,3.42,3.42,0,0,0-2.06.52,2.55,2.55,0,0,0-.94,1.5,9.88,9.88,0,0,0-.24,2.33V116.7a10.18,10.18,0,0,0,.24,2.35,2.71,2.71,0,0,0,.94,1.56A3.28,3.28,0,0,0,136.16,121.17Z"/><path class="cls-3" d="M144.08,123.57l5.16-24.3h3.27l5.19,24.3h-3.21l-1.11-6.12h-4.95l-1.17,6.12Zm4.8-8.55h4.05l-2-11Z"/><path class="cls-3" d="M159.44,123.57V99.27h4.89a10.78,10.78,0,0,1,4,.64A4.48,4.48,0,0,1,170.7,102a7.91,7.91,0,0,1,.77,3.74,10.16,10.16,0,0,1-.3,2.56,5,5,0,0,1-1,2,3.75,3.75,0,0,1-1.74,1.16l3.45,12.18h-3.27l-3.18-11.4h-2.64v11.4Zm3.39-13.83h1.29a6.39,6.39,0,0,0,2.34-.36,2.41,2.41,0,0,0,1.32-1.23,5.7,5.7,0,0,0,.42-2.43,4.85,4.85,0,0,0-.78-3.08c-.52-.63-1.55-.94-3.09-.94h-1.5Z"/><path class="cls-3" d="M174.29,123.57V99.27h5.28a9.27,9.27,0,0,1,4.27.82,4.74,4.74,0,0,1,2.25,2.48,10.9,10.9,0,0,1,.68,4.11v8.94a12.26,12.26,0,0,1-.68,4.35,5.17,5.17,0,0,1-2.19,2.68,7.8,7.8,0,0,1-4.06.92Zm3.39-2.43h1.92a3.9,3.9,0,0,0,2.64-.72,3.32,3.32,0,0,0,.94-2.1,28.5,28.5,0,0,0,.17-3.33V107.1a15.77,15.77,0,0,0-.24-3.06,2.56,2.56,0,0,0-1.05-1.71,4.72,4.72,0,0,0-2.55-.54h-1.83Z"/><path class="cls-3" d="M189.56,123.57V99.27h3.33v24.3Z"/><path class="cls-3" d="M196.09,123.57V99.27h2.32l6.89,16.14V99.27h2.82v24.3H206L199,107v16.59Z"/><path class="cls-3" d="M217,123.87a6.15,6.15,0,0,1-3.64-1,5.45,5.45,0,0,1-2-2.83,14.33,14.33,0,0,1-.61-4.47v-8.13a16.23,16.23,0,0,1,.55-4.55,5.11,5.11,0,0,1,2-2.86,6.91,6.91,0,0,1,4-1,7.64,7.64,0,0,1,3.67.76,4.47,4.47,0,0,1,2,2.34,10.82,10.82,0,0,1,.63,4v.9h-3.19v-.75a13.14,13.14,0,0,0-.21-2.6,2.38,2.38,0,0,0-.85-1.5,3.35,3.35,0,0,0-2-.49,2.93,2.93,0,0,0-2.17.69,3.22,3.22,0,0,0-.84,1.87,19.76,19.76,0,0,0-.16,2.69v9a14,14,0,0,0,.25,2.91,3,3,0,0,0,1,1.74,3.24,3.24,0,0,0,2,.57,3,3,0,0,0,2-.63,3.28,3.28,0,0,0,1-1.86,15.29,15.29,0,0,0,.27-3.06v-1.68h-3.1v-2.4h6.16v12h-2.13l-.33-2.79a5.28,5.28,0,0,1-1.5,2.22A4.22,4.22,0,0,1,217,123.87Z"/><path class="cls-4" d="M170.73,18.12a12.32,12.32,0,0,1,0,17.41l-4.83,4.83L162,36.49a1.37,1.37,0,0,0-1.93,0l-1,1-9.67-9.67,1-1a1.41,1.41,0,0,0,0-1.93l-2.9-2.9,3.87-3.87,7.73,7.74,1.94-1.94-7.68-7.67a12.31,12.31,0,0,1,16.38.91Z"/><rect class="cls-4" x="156" y="41.49" width="8.21" height="5.47" transform="translate(15.52 125.98) rotate(-44.93)"/><path class="cls-4" d="M156.23,50,137.86,68.4,134,64.53a1.37,1.37,0,0,0-1.93,0l-1,1-1.93-1.94a4.2,4.2,0,0,0,0-5.8,4.1,4.1,0,0,0-5.8,0l-1.94-1.93,1-1a1.41,1.41,0,0,0,0-1.93l-2.9-2.9,18.37-18.37,2.9,2.9a1.37,1.37,0,0,0,1.93,0l1-1,1.94,1.93a4.1,4.1,0,0,0,5.8,5.81l1.93,1.93-1,1a1.37,1.37,0,0,0,0,1.93Z"/><path class="cls-4" d="M147.53,29.72l9.67,9.67-1.93,1.94-2.69-2.69a4.08,4.08,0,0,0-4.08-4.32l-.22,0-2.68-2.68Z"/><path class="cls-4" d="M149.46,37.47a1.33,1.33,0,0,1,.4,1,1.37,1.37,0,1,1-2.33-1A1.36,1.36,0,0,1,149.46,37.47Z"/><rect class="cls-4" x="138.6" y="24.09" width="8.2" height="5.47" transform="translate(22.83 108.76) rotate(-45)"/><rect class="cls-4" x="127.97" y="69.54" width="8.2" height="5.46" transform="translate(-12.42 114.55) rotate(-45)"/><path class="cls-4" d="M128.19,78.07l-3.87,3.86-7.73-7.73-1.94,1.93,7.52,7.51a12.33,12.33,0,0,1-15.25-1.71l-1-1a12.34,12.34,0,0,1,0-17.41l3.87-3.86,2.9,2.9a1.37,1.37,0,0,0,1.93,0l1-1,9.67,9.67-1,1a1.37,1.37,0,0,0,0,1.93Z"/><path class="cls-4" d="M127.23,59.7a1.37,1.37,0,1,1-1.94,1.93,1.39,1.39,0,0,1,0-1.93A1.36,1.36,0,0,1,127.23,59.7Z"/><path class="cls-4" d="M122.16,60.66a4.07,4.07,0,0,0,4.07,4.09h.24l2.69,2.69-1.93,1.94-9.67-9.67,1.93-1.94,2.69,2.69C122.18,60.52,122.16,60.59,122.16,60.66Z"/><rect class="cls-4" x="110.56" y="52.13" width="8.2" height="5.47" transform="translate(-5.21 97.15) rotate(-45)"/><path class="cls-1" d="M115.62,50l-5.8,5.8,3.87,3.87,5.8-5.8Zm34.24-11.6a1.33,1.33,0,0,0-.4-1,1.36,1.36,0,1,0-1,2.33A1.38,1.38,0,0,0,149.86,38.43ZM162,36.49l3.87,3.87,4.83-4.83a12.32,12.32,0,0,0,0-17.41l-1-1a12.31,12.31,0,0,0-16.38-.91l7.68,7.67-1.94,1.94-7.73-7.74L147.53,22l2.9,2.9a1.41,1.41,0,0,1,0,1.93l-1,1,9.67,9.67,1-1A1.37,1.37,0,0,1,162,36.49Zm2.9,6.77-3.86-3.87-5.81,5.8,3.87,3.87ZM128.19,78.07l-3.87-3.87a1.37,1.37,0,0,1,0-1.93l1-1-9.67-9.67-1,1a1.37,1.37,0,0,1-1.93,0l-2.9-2.9L106,63.56A12.34,12.34,0,0,0,106,81l1,1a12.33,12.33,0,0,0,15.25,1.71l-7.52-7.51,1.94-1.93,7.73,7.73Zm-1-8.7,1.93-1.94-2.69-2.69h-.24a4.07,4.07,0,0,1-4.07-4.09c0-.07,0-.14,0-.21l-2.69-2.69-1.93,1.94Zm0-7.74a1.37,1.37,0,0,0-1.94-1.93,1.37,1.37,0,1,0,1.94,1.93Zm9.66,9.67L133,67.44l-5.8,5.79,3.86,3.87Zm2.9-1a1.36,1.36,0,0,1,0,1.94L132.06,80a1.37,1.37,0,0,1-1.93,0l-3.87,3.87a15.06,15.06,0,0,1-21.27,0l-1-1a15,15,0,0,1,0-21.27l3.87-3.87-1-1a1.38,1.38,0,0,1,0-1.94l7.74-7.73a1.35,1.35,0,0,1,1.93,0l1,1,18.37-18.38-1-1a1.38,1.38,0,0,1,0-1.94l7.73-7.73a1.38,1.38,0,0,1,1.94,0l1,1,4.83-4.84a15,15,0,0,1,21.27,0l1,1a15,15,0,0,1,0,21.27l-4.84,4.83a1.36,1.36,0,0,1,0,1.94L160.1,52a1.36,1.36,0,0,1-1.94,0Zm5.81-29a4.1,4.1,0,0,1,0-5.81l-1.94-1.93-1,1a1.37,1.37,0,0,1-1.93,0l-2.9-2.9L119.49,50l2.9,2.9a1.41,1.41,0,0,1,0,1.93l-1,1,1.94,1.93a4.1,4.1,0,0,1,5.8,0,4.2,4.2,0,0,1,0,5.8l1.93,1.94,1-1a1.37,1.37,0,0,1,1.93,0l3.87,3.87L156.23,50l-3.87-3.87a1.37,1.37,0,0,1,0-1.93l1-1-1.93-1.93A4.1,4.1,0,0,1,145.6,41.33Zm-3.87-9.67,5.8-5.8L143.66,22l-5.8,5.8Zm3.87,0,2.68,2.68.22,0a4.08,4.08,0,0,1,4.08,4.32l2.69,2.69,1.93-1.94-9.67-9.67Z"/></g></g></svg>