<svg xmlns="http://www.w3.org/2000/svg" xmlns:xlink="http://www.w3.org/1999/xlink" viewBox="0 0 466.35 121.41"><defs><style>.cls-1{fill:#00a0c6;}.cls-2{fill:#ccc;}.cls-3{fill:#4d4d4d;}.cls-4{fill:#a4c2f7;}.cls-5{fill:#e3e7f2;}.cls-6{fill:url(#linear-gradient);}.cls-7{fill:#fff;}</style><linearGradient id="linear-gradient" x1="-2130.99" y1="-1697.91" x2="-2130.83" y2="-1697.8" gradientTransform="translate(803462.6 892847.53) scale(377.01 525.83)" gradientUnits="userSpaceOnUse"><stop offset="0" stop-color="#d4e1f4"/><stop offset="0.17" stop-color="#d4e1f4"/><stop offset="0.2" stop-color="#d4e1f4"/><stop offset="0.2" stop-color="#dae4f4"/><stop offset="0.2" stop-color="#ebebf4"/><stop offset="0.2" stop-color="#f6f1f4"/><stop offset="0.2" stop-color="#fdf4f4"/><stop offset="0.2" stop-color="#fff5f4"/><stop offset="0.25" stop-color="#fff5f4"/><stop offset="0.26" stop-color="#fff5f4"/><stop offset="0.26" stop-color="#d4e1f4"/><stop offset="0.4" stop-color="#d4e1f4"/><stop offset="0.42" stop-color="#d4e1f4"/><stop offset="0.42" stop-color="#dae4f4"/><stop offset="0.42" stop-color="#ebebf4"/><stop offset="0.42" stop-color="#f6f1f4"/><stop offset="0.42" stop-color="#fdf4f4"/><stop offset="0.42" stop-color="#fff5f4"/><stop offset="0.49" stop-color="#fff5f4"/><stop offset="0.5" stop-color="#fff5f4"/><stop offset="0.5" stop-color="#f9f2f4"/><stop offset="0.5" stop-color="#e8ebf4"/><stop offset="0.5" stop-color="#dde5f4"/><stop offset="0.5" stop-color="#d6e2f4"/><stop offset="0.5" stop-color="#d4e1f4"/><stop offset="0.71" stop-color="#d4e1f4"/><stop offset="0.74" stop-color="#d4e1f4"/><stop offset="0.74" stop-color="#fff5f4"/><stop offset="0.83" stop-color="#fff5f4"/><stop offset="0.85" stop-color="#fff5f4"/><stop offset="0.85" stop-color="#d4e1f4"/></linearGradient></defs><title>btn-programacion3</title><g id="Capa_2" data-name="Capa 2"><g id="Layer_1" data-name="Layer 1"><rect class="cls-1" x="10.72" y="12.87" width="455.63" height="108.54"/><rect class="cls-2" width="455.63" height="110.27"/><path class="cls-3" d="M153.12,68.62V36.07h8.08a8.9,8.9,0,0,1,4.67,1.06,6.19,6.19,0,0,1,2.56,3.08,13.22,13.22,0,0,1,.8,4.86,10.29,10.29,0,0,1-.9,4.46,6.58,6.58,0,0,1-2.68,2.91,8.61,8.61,0,0,1-4.42,1h-3.57V68.62Zm4.54-18.41h2.09a8.58,8.58,0,0,0,3.09-.44,2.79,2.79,0,0,0,1.61-1.55,8,8,0,0,0,.48-3.11,14.27,14.27,0,0,0-.34-3.58,2.48,2.48,0,0,0-1.43-1.72,8.6,8.6,0,0,0-3.37-.49h-2.13Z"/><path class="cls-3" d="M171.44,68.62V36.07H178a14.5,14.5,0,0,1,5.38.86,6,6,0,0,1,3.16,2.78,10.6,10.6,0,0,1,1,5,13.51,13.51,0,0,1-.4,3.43,6.63,6.63,0,0,1-1.28,2.62,5,5,0,0,1-2.33,1.54l4.62,16.32h-4.38l-4.26-15.27H176V68.62ZM176,50.09h1.73a8.58,8.58,0,0,0,3.13-.48A3.19,3.19,0,0,0,182.61,48a7.53,7.53,0,0,0,.56-3.25,6.52,6.52,0,0,0-1-4.12c-.7-.84-2.08-1.27-4.14-1.27h-2Z"/><path class="cls-3" d="M199.65,69a9.52,9.52,0,0,1-5.27-1.29A7,7,0,0,1,191.57,64a17,17,0,0,1-.84-5.61V46.08a15.94,15.94,0,0,1,.86-5.53A7,7,0,0,1,194.4,37a9.85,9.85,0,0,1,5.25-1.22A9.51,9.51,0,0,1,204.87,37a7,7,0,0,1,2.79,3.54,15.54,15.54,0,0,1,.87,5.51V58.45a16.09,16.09,0,0,1-.87,5.55,7.25,7.25,0,0,1-2.79,3.67A9.16,9.16,0,0,1,199.65,69Zm0-3.58a4.27,4.27,0,0,0,2.73-.74,3.7,3.7,0,0,0,1.25-2.09,14,14,0,0,0,.32-3.15V45.15a13.34,13.34,0,0,0-.32-3.11,3.49,3.49,0,0,0-1.25-2,4.47,4.47,0,0,0-2.73-.71,4.53,4.53,0,0,0-2.75.71,3.42,3.42,0,0,0-1.27,2,13.34,13.34,0,0,0-.32,3.11V59.42a14,14,0,0,0,.32,3.15,3.62,3.62,0,0,0,1.27,2.09A4.33,4.33,0,0,0,199.65,65.4Z"/><path class="cls-3" d="M219.78,69a8.23,8.23,0,0,1-4.88-1.31,7.24,7.24,0,0,1-2.65-3.79,19.21,19.21,0,0,1-.83-6V47a22,22,0,0,1,.74-6.09,6.9,6.9,0,0,1,2.66-3.84,9.24,9.24,0,0,1,5.32-1.32,10.22,10.22,0,0,1,4.92,1A6,6,0,0,1,227.78,40a14.47,14.47,0,0,1,.84,5.32v1.21h-4.26v-1a17.24,17.24,0,0,0-.28-3.47,3.25,3.25,0,0,0-1.15-2,4.39,4.39,0,0,0-2.71-.67,3.91,3.91,0,0,0-2.91.93,4.34,4.34,0,0,0-1.13,2.51,27.59,27.59,0,0,0-.22,3.6v12a19.34,19.34,0,0,0,.34,3.9,4,4,0,0,0,1.31,2.33,4.29,4.29,0,0,0,2.73.76,4,4,0,0,0,2.73-.84,4.4,4.4,0,0,0,1.33-2.49,19.67,19.67,0,0,0,.36-4.1V55.72h-4.14V52.5h8.24V68.62H226l-.44-3.74a6.83,6.83,0,0,1-2,3A5.62,5.62,0,0,1,219.78,69Z"/><path class="cls-3" d="M232.56,68.62V36.07h6.55a14.54,14.54,0,0,1,5.38.86,6,6,0,0,1,3.16,2.78,10.6,10.6,0,0,1,1,5,13.51,13.51,0,0,1-.4,3.43A6.64,6.64,0,0,1,247,50.76a5,5,0,0,1-2.33,1.54l4.62,16.32h-4.38l-4.26-15.27H237.1V68.62Zm4.54-18.53h1.73a8.58,8.58,0,0,0,3.13-.48A3.25,3.25,0,0,0,243.73,48a7.69,7.69,0,0,0,.56-3.25,6.52,6.52,0,0,0-1-4.12c-.7-.84-2.08-1.27-4.14-1.27h-2Z"/><path class="cls-3" d="M250.68,68.62l6.91-32.55H262l6.95,32.55h-4.3l-1.49-8.2h-6.62l-1.57,8.2Zm6.43-11.45h5.42L259.8,42.5Z"/><path class="cls-3" d="M271.17,68.62l.61-32.55h4.45L282,62.47l5.79-26.4h4.42l.6,32.55h-3.66L288.77,45l-5.5,23.63H280.7L275.23,45l-.36,23.63Z"/><path class="cls-3" d="M295,68.62,302,36.07h4.38l6.95,32.55H309l-1.48-8.2h-6.63l-1.57,8.2Zm6.43-11.45h5.42L304.16,42.5Z"/><path class="cls-3" d="M323.61,69a8.67,8.67,0,0,1-5.36-1.45,7.42,7.42,0,0,1-2.66-3.9,18.93,18.93,0,0,1-.74-5.46V46.68a20.12,20.12,0,0,1,.74-5.75,7,7,0,0,1,2.66-3.8,9.25,9.25,0,0,1,5.36-1.34,9,9,0,0,1,4.84,1.12A6.3,6.3,0,0,1,331,40.13a14.15,14.15,0,0,1,.79,5v2.57h-4.3V45.43a25,25,0,0,0-.18-3.19,3.44,3.44,0,0,0-1-2.15,3.83,3.83,0,0,0-2.69-.77,3.45,3.45,0,0,0-4,3.16,21.23,21.23,0,0,0-.26,3.51v12.9a14.77,14.77,0,0,0,.4,3.88,3.39,3.39,0,0,0,1.33,2,4.54,4.54,0,0,0,2.49.6,3.58,3.58,0,0,0,2.65-.82,4,4,0,0,0,1-2.27,25.61,25.61,0,0,0,.2-3.38V56.52h4.3v2.41a17.08,17.08,0,0,1-.73,5.25,6.67,6.67,0,0,1-2.49,3.53A8.41,8.41,0,0,1,323.61,69Z"/><path class="cls-3" d="M335.42,68.62V36.07h4.46V68.62Z"/><path class="cls-3" d="M352.5,69a9.46,9.46,0,0,1-5.26-1.29A7,7,0,0,1,344.42,64a17,17,0,0,1-.84-5.61V46.08a15.7,15.7,0,0,1,.87-5.53A6.87,6.87,0,0,1,347.26,37a9.82,9.82,0,0,1,5.24-1.22A9.51,9.51,0,0,1,357.72,37a7,7,0,0,1,2.8,3.54,15.78,15.78,0,0,1,.86,5.51V58.45a16.34,16.34,0,0,1-.86,5.55,7.32,7.32,0,0,1-2.8,3.67A9.16,9.16,0,0,1,352.5,69Zm0-3.58a4.23,4.23,0,0,0,2.73-.74,3.7,3.7,0,0,0,1.25-2.09,14,14,0,0,0,.32-3.15V45.15a13.34,13.34,0,0,0-.32-3.11,3.49,3.49,0,0,0-1.25-2,4.43,4.43,0,0,0-2.73-.71,4.53,4.53,0,0,0-2.75.71,3.46,3.46,0,0,0-1.27,2,13.34,13.34,0,0,0-.32,3.11V59.42a14,14,0,0,0,.32,3.15,3.67,3.67,0,0,0,1.27,2.09A4.33,4.33,0,0,0,352.5,65.4Zm-1.12-31.26,2.37-8h4.3l-4.51,8Z"/><path class="cls-3" d="M364.88,68.62V36.07H368l9.24,21.62V36.07H381V68.62H378.1L368.73,46.4V68.62Z"/><polygon class="cls-4" points="70.25 16.31 76.91 22.97 99.56 22.97 111.55 34.96 111.55 16.31 70.25 16.31"/><polygon class="cls-5" points="63.59 22.97 95.56 22.97 107.55 34.96 107.55 16.31 60.93 16.31 60.93 86.91 63.59 86.91 63.59 22.97"/><polygon class="cls-4" points="118.21 41.62 99.56 22.97 90.23 22.97 90.23 93.57 118.21 93.57 118.21 41.62"/><polygon class="cls-6" points="114.21 41.62 98.22 22.97 63.59 22.97 63.59 93.57 114.21 93.57 114.21 41.62"/><polygon class="cls-4" points="99.56 22.97 99.56 41.62 118.21 41.62 99.56 22.97"/><path class="cls-1" d="M107.55,50.94H74.25a1.33,1.33,0,1,1,0-2.66h33.3a1.33,1.33,0,0,1,0,2.66Z"/><path class="cls-1" d="M87.57,40.29H74.25a1.34,1.34,0,1,1,0-2.67H87.57a1.34,1.34,0,0,1,0,2.67Z"/><path class="cls-1" d="M107.55,61.6H74.25a1.33,1.33,0,1,1,0-2.66h33.3a1.33,1.33,0,0,1,0,2.66Z"/><path class="cls-1" d="M107.55,72.26H74.25a1.34,1.34,0,1,1,0-2.67h33.3a1.34,1.34,0,0,1,0,2.67Z"/><path class="cls-1" d="M107.55,82.92H74.25a1.34,1.34,0,1,1,0-2.67h33.3a1.34,1.34,0,0,1,0,2.67Z"/><path class="cls-1" d="M118.21,94.9H63.59a1.33,1.33,0,0,1-1.33-1.33V23a1.33,1.33,0,0,1,1.33-1.33h36a1.33,1.33,0,0,1,.94.39l18.65,18.65a1.33,1.33,0,0,1,.39.94v52a1.33,1.33,0,0,1-1.33,1.33ZM64.92,92.24h52V42.17L99,24.3H64.92Z"/><path class="cls-1" d="M118.21,43H99.56a1.33,1.33,0,0,1-1.34-1.33V23a1.34,1.34,0,0,1,.83-1.23,1.32,1.32,0,0,1,1.45.29l18.65,18.65a1.34,1.34,0,0,1,.29,1.45,1.33,1.33,0,0,1-1.23.82Zm-17.32-2.66H115l-14.1-14.1Z"/><path class="cls-1" d="M63.59,88.24H56.93a1.33,1.33,0,0,1-1.33-1.33V16.31A1.33,1.33,0,0,1,56.93,15h54.62a1.33,1.33,0,0,1,1.33,1.33V35a1.33,1.33,0,0,1-2.28.94L99,24.3H64.92V86.91a1.33,1.33,0,0,1-1.33,1.33Zm-5.33-2.66h4V23a1.33,1.33,0,0,1,1.33-1.33h36a1.33,1.33,0,0,1,.94.39l9.71,9.71V17.64H58.26V85.58Z"/><rect class="cls-7" x="58.26" y="17.64" width="2.66" height="67.94"/></g></g></svg>