<svg xmlns="http://www.w3.org/2000/svg" viewBox="0 0 284.46 150.23"><defs><style>.cls-1{fill:#132942;}.cls-2{fill:#ccc;}.cls-3{fill:#4d4d4d;}.cls-4{fill:#cce4ff;}.cls-5{fill:#fff;}</style></defs><title>btn-tablas3</title><g id="Capa_2" data-name="Capa 2"><g id="Layer_1" data-name="Layer 1"><rect class="cls-1" x="13" y="14" width="271.46" height="136.23"/><rect class="cls-2" width="271.46" height="136.23"/><path class="cls-3" d="M95.89,123.57V101.79H91.78V99.27h11.49v2.52h-4v21.78Z"/><path class="cls-3" d="M103.51,123.57l5.16-24.3h3.27l5.19,24.3h-3.21l-1.11-6.12h-5l-1.17,6.12Zm4.8-8.55h4l-2-11Z"/><path class="cls-3" d="M118.87,123.57V99.27h5.58a10.18,10.18,0,0,1,2.87.36,5.08,5.08,0,0,1,2,1.11,4.49,4.49,0,0,1,1.2,1.9,8.53,8.53,0,0,1,.39,2.72,8,8,0,0,1-.37,2.59,3.77,3.77,0,0,1-1.15,1.73,3.89,3.89,0,0,1-2,.81,5.24,5.24,0,0,1,2.37,1.12,4.76,4.76,0,0,1,1.34,2,9.12,9.12,0,0,1,.43,3,10.59,10.59,0,0,1-.36,2.85,5.68,5.68,0,0,1-1.12,2.19,5.07,5.07,0,0,1-2,1.39,7.27,7.27,0,0,1-2.81.5Zm3.39-14.16h2a5.11,5.11,0,0,0,2.25-.41,2.26,2.26,0,0,0,1.14-1.3,6.92,6.92,0,0,0,.33-2.34,4.44,4.44,0,0,0-.51-2.43,2.32,2.32,0,0,0-1.59-1,16.53,16.53,0,0,0-2.82-.19h-.81Zm0,11.73h2.28c1.52,0,2.54-.36,3-1.07a6,6,0,0,0,.76-3.43,7.11,7.11,0,0,0-.4-2.57,3,3,0,0,0-1.29-1.56,4.68,4.68,0,0,0-2.39-.52h-2Z"/><path class="cls-3" d="M133.87,123.57V99.27h3.39v21.87h6.21v2.43Z"/><path class="cls-3" d="M143.74,123.57l5.16-24.3h3.27l5.19,24.3h-3.21L153,117.45h-4.95l-1.17,6.12Zm4.8-8.55h4.05l-2-11Z"/><path class="cls-3" d="M164.83,123.84a6.34,6.34,0,0,1-3.5-.9,5.73,5.73,0,0,1-2.11-2.49,10.32,10.32,0,0,1-.84-3.69l3-.81a13.48,13.48,0,0,0,.41,2.49,4.43,4.43,0,0,0,1,2,3,3,0,0,0,4,0,3,3,0,0,0,.67-2.11,4.35,4.35,0,0,0-.75-2.66,13.94,13.94,0,0,0-1.89-2l-4.08-3.6a6.88,6.88,0,0,1-1.77-2.3,7.35,7.35,0,0,1-.57-3.07,5.47,5.47,0,0,1,1.53-4.14,5.77,5.77,0,0,1,4.17-1.47,7.79,7.79,0,0,1,2.53.37,4.39,4.39,0,0,1,1.83,1.16,5.5,5.5,0,0,1,1.17,2,11.14,11.14,0,0,1,.59,2.78l-2.88.78a12,12,0,0,0-.36-2.21,3.28,3.28,0,0,0-.94-1.62,2.8,2.8,0,0,0-1.94-.61,2.74,2.74,0,0,0-2,.67,2.69,2.69,0,0,0-.7,2,4,4,0,0,0,.37,1.83,5.39,5.39,0,0,0,1.22,1.47l4.11,3.6a12.81,12.81,0,0,1,2.43,2.86,7.26,7.26,0,0,1,1.05,4,6.11,6.11,0,0,1-.75,3.1,5.08,5.08,0,0,1-2.06,2A6.33,6.33,0,0,1,164.83,123.84Z"/><rect class="cls-4" x="151.99" y="37.72" width="11.26" height="39.42"/><rect class="cls-4" x="129.46" y="43.35" width="11.26" height="33.79"/><path class="cls-1" d="M104.12,23.64V80H121V23.64Zm11.26,50.69h-5.63V29.27h5.63Z"/><rect class="cls-5" x="109.75" y="29.27" width="5.63" height="45.05"/><path class="cls-1" d="M149.17,80h16.9v-45h-16.9Zm5.64-39.42h5.63V74.33h-5.63Z"/><path class="cls-1" d="M126.65,80h16.89V40.54H126.65Zm5.63-33.79h5.63V74.33h-5.63Z"/><rect class="cls-1" x="149.17" y="23.64" width="16.89" height="5.63"/><rect class="cls-1" x="126.65" y="29.27" width="16.9" height="5.63"/><rect class="cls-1" x="104.12" y="12.38" width="16.89" height="5.63"/></g></g></svg>