<svg xmlns="http://www.w3.org/2000/svg" viewBox="0 0 96.97 105.78"><defs><style>.cls-1{fill:#fff;}</style></defs><title>icon-calendario</title><g id="Capa_2" data-name="Capa 2"><g id="Contacto"><path class="cls-1" d="M86.39,3.53H81.1V1.76a1.77,1.77,0,0,0-3.53,0V3.53H74.05V1.76a1.77,1.77,0,0,0-3.53,0V3.53H67V1.76a1.77,1.77,0,0,0-3.53,0V3.53H59.94V1.76a1.76,1.76,0,0,0-3.52,0V3.53H31.74V1.76a1.77,1.77,0,0,0-3.53,0V3.53H24.68V1.76a1.76,1.76,0,1,0-3.52,0V3.53H17.63V1.76a1.77,1.77,0,0,0-3.53,0V3.53H10.58V1.76a1.77,1.77,0,0,0-3.53,0V3.53H1.76A1.76,1.76,0,0,0,0,5.29V88.15a1.76,1.76,0,0,0,1.76,1.77H53a1.77,1.77,0,0,0,1.77-1.76.53.53,0,0,0,0-.13v-.21c0-.47-.08-.95-.08-1.43a22.58,22.58,0,0,1,.62-5.18A23,23,0,0,1,57,76.32c.08-.15.15-.31.23-.46.23-.45.49-.88.75-1.32l.25-.41c.29-.44.59-.88.9-1.31l.2-.26c.35-.46.72-.91,1.1-1.34l.05-.06a23.24,23.24,0,0,1,9.23-6.28l.31-.11c.47-.17,1-.32,1.44-.46l.67-.17c.41-.11.83-.2,1.25-.28s.72-.12,1.08-.16.63-.1,1-.13c.7-.07,1.42-.11,2.14-.11.48,0,1,0,1.42.07h.26A23,23,0,0,1,85.75,65a1.76,1.76,0,0,0,2.4-1.64V5.29A1.76,1.76,0,0,0,86.39,3.53ZM54.75,73.1c-.06.1-.13.2-.18.3-.26.44-.49.9-.71,1.37-.12.25-.25.5-.37.76-.19.43-.37.86-.54,1.3,0,0,0,.08-.05.13v-8.2h5A27,27,0,0,0,54.75,73.1Zm8.72-9c-.61.38-1.19.79-1.76,1.22v0H52.89V54.65H63.47Zm0-12.93H52.89V40.55H63.47Zm0-14.11H52.89V26.45H63.47Zm14.1,3.53V51.13H67V40.55ZM67,37V26.45H77.57V37ZM77.58,59.94c-.83,0-1.64.05-2.45.13-.35,0-.68.08-1,.13l-1.29.19c-.43.08-.89.18-1.33.29l-.81.21q-.8.21-1.59.48l-.2.07c-.64.22-1.27.46-1.89.73V54.65H77.58v5.29Zm7,1a25.13,25.13,0,0,0-3.53-.73V24.68a1.76,1.76,0,0,0-1.76-1.76H8.82a1.76,1.76,0,0,0-1.77,1.76V81.1a1.76,1.76,0,0,0,1.77,1.76H51.39a26.08,26.08,0,0,0-.26,3.53H3.53v-67h81.1ZM38.79,65.23V54.65H49.36V65.23Zm10.57,3.53V79.34H38.79V68.76ZM38.79,51.13V40.55H49.36V51.13Zm0-14.11V26.45H49.36V37ZM24.68,65.23V54.65H35.26V65.23Zm10.58,3.53V79.34H24.68V68.76ZM24.68,51.13V40.55H35.26V51.13Zm0-14.11V26.45H35.26V37ZM10.58,65.23V54.65H21.16V65.23Zm10.58,3.53V79.34H10.58V68.76ZM10.58,51.13V40.55H21.16V51.13Zm0-14.11V26.45H21.16V37ZM84.63,15.87H3.53V7.05H7.05V8.82a1.77,1.77,0,0,0,3.53,0V7.05H14.1V8.82a1.77,1.77,0,0,0,3.53,0V7.05h3.53V8.82a1.76,1.76,0,1,0,3.52,0V7.05h3.53V8.82a1.77,1.77,0,0,0,3.53,0V7.05H56.42V8.82a1.76,1.76,0,0,0,3.52,0V7.05h3.53V8.82a1.77,1.77,0,0,0,3.53,0V7.05h3.52V8.82a1.77,1.77,0,0,0,3.53,0V7.05h3.52V8.82a1.77,1.77,0,0,0,3.53,0V7.05h3.53Z"/><path class="cls-1" d="M77.57,67A19.39,19.39,0,1,0,97,86.39,19.39,19.39,0,0,0,77.57,67Zm0,35.26A15.87,15.87,0,1,1,93.44,86.39,15.87,15.87,0,0,1,77.57,102.26Z"/><path class="cls-1" d="M87.59,76.33a1.76,1.76,0,0,0-2.45,0L77.57,83.9l-4-4.05A1.76,1.76,0,0,0,71,82.35l5.29,5.29a1.77,1.77,0,0,0,2.49,0l8.82-8.82A1.77,1.77,0,0,0,87.59,76.33Z"/></g></g></svg>