<svg xmlns="http://www.w3.org/2000/svg" viewBox="0 0 102.82 87.13"><defs><style>.cls-1{fill:#fff;}</style></defs><title>Recurso 6</title><g id="Capa_2" data-name="Capa 2"><g id="Contacto"><path class="cls-1" d="M94.1,0H24.4a8.73,8.73,0,0,0-8.72,8.71V29.62h3.49V17.43H99.33v61a5.23,5.23,0,0,1-5.23,5.23H24.4a5.23,5.23,0,0,1-5.23-5.23V64.48H15.68V78.42a8.73,8.73,0,0,0,8.72,8.71H94.1a8.73,8.73,0,0,0,8.72-8.71V8.71A8.73,8.73,0,0,0,94.1,0ZM19.17,13.94V8.71A5.23,5.23,0,0,1,24.4,3.48H94.1a5.23,5.23,0,0,1,5.23,5.23v5.23Z"/><path class="cls-1" d="M24.4,7h3.48v3.48H24.4Z"/><path class="cls-1" d="M31.37,7h3.48v3.48H31.37Z"/><path class="cls-1" d="M38.34,7h3.49v3.48H38.34Z"/><path class="cls-1" d="M88.88,61a3.48,3.48,0,0,0,3.48-3.48V34.85c0-.05,0-.08,0-.13a2,2,0,0,0,0-.35.31.31,0,0,0-.05-.1,1,1,0,0,0-.1-.21,1.46,1.46,0,0,0-.22-.33l-.16-.16a1.27,1.27,0,0,0-.34-.23l-.18-.1a1.91,1.91,0,0,0-.62-.13H52.28a1.68,1.68,0,0,0-.62.13l-.18.09a1.92,1.92,0,0,0-.35.23l-.15.16a1.46,1.46,0,0,0-.22.33,2,2,0,0,0-.1.21.93.93,0,0,0,0,.1,2.23,2.23,0,0,0,0,.36c0,.05,0,.08,0,.13V57.51A3.48,3.48,0,0,0,54,61ZM54,38l10.87,6.91L54,53.83Zm14,8.88,2.52,1.61a1.73,1.73,0,0,0,1.88,0l2.52-1.61,13,10.6H55Zm20.89,6.92L78,45,88.88,38ZM84.63,36.6,71.45,45,58.26,36.6Z"/><path class="cls-1" d="M22.65,33.11h24.4V36.6H22.65Z"/><path class="cls-1" d="M12.2,33.11h7V36.6h-7Z"/><path class="cls-1" d="M33.11,45.31H47.05v3.48H33.11Z"/><path class="cls-1" d="M26.14,45.31h3.49v3.48H26.14Z"/><path class="cls-1" d="M15.68,45.31h7v3.48h-7Z"/><path class="cls-1" d="M1.74,45.31h7v3.48h-7Z"/><path class="cls-1" d="M29.62,57.51H47.05V61H29.62Z"/><path class="cls-1" d="M19.17,57.51h7V61h-7Z"/><path class="cls-1" d="M12.2,57.51h3.48V61H12.2Z"/><path class="cls-1" d="M0,57.51H7V61H0Z"/><path class="cls-1" d="M5.23,33.11H8.71V36.6H5.23Z"/></g></g></svg>